#N canvas 396 102 1284 854 10;
#X obj 342 115 inlet~;
#X obj 154 314 outlet~ r;
#X obj 249 314 outlet~ r;
#X text 62 23 simple reverb example based on p.234 of Designing Sound
;
#X obj 339 214 +~;
#X obj 391 217 +~;
#X obj 338 317 +~;
#X obj 390 320 +~;
#X obj 506 330 +~;
#X obj 558 333 +~;
#X obj 505 433 +~;
#X obj 571 434 +~;
#X obj 341 428 +~;
#X obj 393 431 +~;
#X obj 341 449 *~ 0.4;
#X obj 393 452 *~ 0.37;
#X obj 505 454 *~ 0.333;
#X obj 571 455 *~ 0.3;
#X obj 340 581 delwrite~ \$0-A 1000;
#X obj 393 541 delwrite~ \$0-B 1000;
#X obj 505 522 delwrite~ \$0-C 1000;
#X obj 571 499 delwrite~ \$0-D 1000;
#X obj 493 153 delread~ \$0-A 101;
#X obj 515 174 delread~ \$0-B 143;
#X obj 543 195 delread~ \$0-C 165;
#X obj 573 220 delread~ \$0-D 177;
#X connect 0 0 4 0;
#X connect 0 0 5 0;
#X connect 4 0 1 0;
#X connect 4 0 7 0;
#X connect 4 0 6 0;
#X connect 5 0 2 0;
#X connect 5 0 7 1;
#X connect 5 0 6 1;
#X connect 6 0 12 0;
#X connect 6 0 10 0;
#X connect 7 0 13 0;
#X connect 7 0 11 0;
#X connect 8 0 12 1;
#X connect 8 0 10 1;
#X connect 9 0 13 1;
#X connect 9 0 11 1;
#X connect 10 0 16 0;
#X connect 11 0 17 0;
#X connect 12 0 14 0;
#X connect 13 0 15 0;
#X connect 14 0 18 0;
#X connect 15 0 19 0;
#X connect 16 0 20 0;
#X connect 17 0 21 0;
#X connect 22 0 4 1;
#X connect 23 0 5 1;
#X connect 24 0 8 0;
#X connect 24 0 9 0;
#X connect 25 0 8 1;
#X connect 25 0 9 1;
