#N canvas 0 22 898 742 10;
#X obj 162 77 inlet~;
#X obj 3 259 outlet~;
#X obj 80 257 outlet~;
#X obj 164 131 +~;
#X obj 227 132 +~;
#X obj 227 75 inlet~;
#X obj 168 239 +~;
#X obj 169 314 +~;
#X obj 235 235 -~;
#X obj 239 311 +~;
#X obj 404 244 +~;
#X obj 539 290 -~;
#X obj 393 312 -~;
#X obj 524 331 -~;
#X obj 243 448 *~ 0.3;
#X obj 176 523 delwrite~ \$0-dx1 2056;
#X obj 244 488 delwrite~ \$0-dx2 2056;
#X obj 393 398 delwrite~ \$0-dx3 2056;
#X obj 544 399 delwrite~ \$0-dx4 3026;
#X obj 344 56 delread~ \$0-dx1 \$1;
#X obj 363 90 delread~ \$0-dx2 \$2;
#X obj 421 142 delread~ \$0-dx1 \$3;
#X obj 513 181 delread~ \$0-dx4 \$4;
#X obj 393 360 *~ 0.3;
#X obj 524 361 *~ 0.3;
#X obj 175 455 *~ 0.3;
#X connect 0 0 3 0;
#X connect 3 0 1 0;
#X connect 3 0 6 0;
#X connect 3 0 8 0;
#X connect 4 0 2 0;
#X connect 4 0 8 1;
#X connect 4 0 6 1;
#X connect 5 0 4 0;
#X connect 6 0 7 0;
#X connect 6 0 12 0;
#X connect 7 0 25 0;
#X connect 8 0 9 0;
#X connect 8 0 13 0;
#X connect 9 0 14 0;
#X connect 10 0 7 1;
#X connect 10 0 12 1;
#X connect 11 0 13 1;
#X connect 11 0 9 1;
#X connect 12 0 23 0;
#X connect 13 0 24 0;
#X connect 14 0 16 0;
#X connect 19 0 3 1;
#X connect 20 0 4 1;
#X connect 21 0 10 0;
#X connect 21 0 11 0;
#X connect 22 0 10 1;
#X connect 22 0 11 1;
#X connect 23 0 17 0;
#X connect 24 0 18 0;
#X connect 25 0 15 0;
