#N canvas 0 22 519 425 10;
#X obj 145 331 outlet~;
#X obj 388 52 inlet;
#X obj 28 110 phasor~ 440;
#X obj 215 112 phasor~ 587.329;
#X obj 120 220 +~;
#X obj 149 276 *~;
#X obj 115 109 phasor~ 523.25;
#X obj 347 177 vline~;
#X msg 370 115 1 1000 0 \, 0 4000 1200;
#X connect 1 0 8 0;
#X connect 2 0 4 0;
#X connect 3 0 4 0;
#X connect 4 0 5 0;
#X connect 5 0 0 0;
#X connect 6 0 4 0;
#X connect 7 0 5 1;
#X connect 8 0 7 0;
