#N canvas 76 22 816 716 10;
#X obj 408 36 tgl 15 0 empty empty empty 17 7 0 10 -262144 -1 -1 0
1;
#X obj 412 104 masterclock;
#X floatatom 478 61 5 0 0 0 - - -;
#X obj 213 217 hradio 15 1 0 16 empty empty empty 0 -8 0 10 -262144
-1 -1 14;
#X obj 131 364 kick1;
#X obj 282 180 mod 16;
#X obj 112 297 sel 0 4 8 12;
#X obj 240 374 snare1;
#X obj 331 277 sel 2 6 10 12 13 14;
#X msg 526 34 164;
#X obj 403 669 dac~;
#X obj 250 549 +~;
#X obj 247 432 *~ 0.3;
#X obj 515 199 sel 0;
#X obj 493 147 mod 32;
#X obj 546 265 haunting;
#X obj 270 606 fdn~ 64 200;
#X obj 255 268 sel 0;
#X obj 369 466 fdn~ 128 10000;
#X obj 470 248 mod 128;
#X obj 561 71 bng 15 250 50 0 empty empty empty 17 7 0 10 -262144 -1
-1;
#X obj 191 413 *~ 0.1;
#X connect 0 0 1 0;
#X connect 1 2 5 0;
#X connect 1 2 14 0;
#X connect 1 2 19 0;
#X connect 2 0 1 1;
#X connect 3 0 6 0;
#X connect 4 0 21 0;
#X connect 5 0 3 0;
#X connect 6 0 4 0;
#X connect 6 1 4 0;
#X connect 6 2 4 0;
#X connect 6 3 4 0;
#X connect 7 0 12 0;
#X connect 8 0 7 0;
#X connect 8 1 7 0;
#X connect 8 2 7 0;
#X connect 8 3 7 0;
#X connect 8 4 7 0;
#X connect 8 5 7 0;
#X connect 9 0 2 0;
#X connect 11 0 16 0;
#X connect 12 0 18 0;
#X connect 13 0 15 0;
#X connect 14 0 13 0;
#X connect 15 0 10 0;
#X connect 15 1 10 1;
#X connect 16 0 10 0;
#X connect 16 1 10 1;
#X connect 17 0 7 0;
#X connect 18 0 10 0;
#X connect 18 1 10 1;
#X connect 19 0 17 0;
#X connect 21 0 11 0;
