#N canvas 164 39 945 699 10;
#X obj 97 61 tgl 15 0 empty empty empty 17 7 0 10 -262144 -1 -1 0 1
;
#X obj 157 66 hsl 128 15 1 1000 0 0 empty empty empty -2 -8 0 10 -262144
-1 -1 0 1;
#X obj 140 130 s tick;
#X obj 87 409 bng 15 250 50 0 empty empty empty 17 7 0 10 -262144 -1
-1;
#N canvas 24 68 571 632 boomer 1;
#X obj 77 37 inlet shabang;
#X obj 93 97 f 0;
#X obj 172 100 + 1;
#X obj 123 255 bng 15 250 50 0 empty empty empty 17 7 0 10 -262144
-1 -1;
#X floatatom 29 143 5 0 0 0 - - -;
#X obj 97 378 bng 15 250 50 0 empty empty empty 17 7 0 10 -262144 -1
-1;
#X obj 66 229 mod 4;
#X obj 66 260 sel 2;
#X obj 260 436 noise~;
#X obj 214 592 dac~;
#X obj 222 517 *~;
#X obj 172 251 del 100;
#X obj 188 287 del 100;
#X obj 210 323 del 100;
#X obj 112 174 mod 128;
#X obj 152 218 sel 127;
#X obj 98 461 vline~;
#X msg 81 430 1 10 \, 0.8 50 10 \, 0 100 10;
#X obj 285 487 bp~ 5000 25;
#X obj 392 417 delread~ hat 50;
#X obj 299 534 delwrite~ hat 100;
#X obj 391 451 *~ 0.89;
#X obj 229 558 *~ 0.5;
#X connect 0 0 1 0;
#X connect 1 0 2 0;
#X connect 1 0 4 0;
#X connect 1 0 14 0;
#X connect 2 0 1 1;
#X connect 5 0 17 0;
#X connect 6 0 7 0;
#X connect 7 0 5 0;
#X connect 8 0 18 0;
#X connect 10 0 9 0;
#X connect 10 0 22 0;
#X connect 11 0 5 0;
#X connect 11 0 12 0;
#X connect 12 0 5 0;
#X connect 12 0 13 0;
#X connect 13 0 5 0;
#X connect 14 0 6 0;
#X connect 14 0 15 0;
#X connect 15 0 3 0;
#X connect 15 0 11 0;
#X connect 16 0 10 0;
#X connect 17 0 16 0;
#X connect 18 0 10 1;
#X connect 18 0 20 0;
#X connect 19 0 21 0;
#X connect 21 0 18 0;
#X connect 22 0 9 1;
#X restore 42 452 pd boomer;
#N canvas 526 191 477 436 tocker 1;
#X obj 73 15 inlet tick;
#X obj 161 357 dac~;
#X obj 173 308 *~;
#X obj 42 173 bng 15 250 50 0 empty empty empty 17 7 0 10 -262144 -1
-1;
#X obj 68 51 f 0;
#X obj 122 53 + 1;
#X obj 80 89 mod 24;
#X obj 70 131 sel 23;
#X obj 107 269 vline~;
#X msg 105 230 1 100 \, 0 1000 100;
#X obj 234 283 osc~ 150;
#X msg 272 212 200 10 \, 125 500 10 \, 100 500 10;
#X obj 304 253 vline~;
#X connect 0 0 4 0;
#X connect 2 0 1 0;
#X connect 2 0 1 1;
#X connect 4 0 5 0;
#X connect 4 0 6 0;
#X connect 5 0 4 1;
#X connect 6 0 7 0;
#X connect 7 0 3 0;
#X connect 7 0 9 0;
#X connect 7 0 11 0;
#X connect 8 0 2 0;
#X connect 9 0 8 0;
#X connect 10 0 2 1;
#X connect 11 0 12 0;
#X connect 12 0 10 0;
#X restore 114 451 pd tocker;
#X obj 242 479 bng 15 250 50 0 empty empty empty 17 7 0 10 -262144
-1 -1;
#N canvas 636 78 555 569 section2 1;
#X obj 66 20 inlet tick;
#X obj 91 564 dac~;
#X obj 78 359 *~;
#X obj 68 135 vline~;
#X msg 76 88 1 10 \, 0.8 100 10 \, 0 50 10;
#X obj 36 100 bng 15 250 50 0 empty empty empty 17 7 0 10 -262144 -1
-1;
#X obj 139 295 +~;
#X obj 170 151 hsl 128 15 0 10000 0 0 empty empty empty -2 -8 0 10
-262144 -1 -1 500 1;
#X obj 106 333 phasor~;
#X obj 328 144 hsl 128 15 0 10000 0 0 empty empty empty -2 -8 0 10
-262144 -1 -1 599 1;
#X obj 331 207 osc~;
#X obj 407 172 hsl 128 15 0 10000 0 0 empty empty empty -2 -8 0 10
-262144 -1 -1 1299 1;
#X obj 364 255 *~;
#X obj 145 239 vline~;
#X msg 140 203 \$1 10 \, 0 250 10;
#X obj 27 477 *~;
#X obj 72 438 osc~ 0.1;
#X obj 158 494 *~;
#X obj 97 474 -~ -1;
#X obj 78 401 *~;
#X obj 131 370 osc~ 0.025;
#X floatatom 183 181 5 0 0 0 - - -;
#X floatatom 426 226 5 0 0 0 - - -;
#X floatatom 348 174 5 0 0 0 - - -;
#X obj 336 31 loadbang;
#X msg 343 104 472;
#X msg 434 92 1023;
#X msg 271 92 393.7;
#X connect 0 0 4 0;
#X connect 0 0 5 0;
#X connect 0 0 7 0;
#X connect 2 0 19 0;
#X connect 3 0 2 0;
#X connect 4 0 3 0;
#X connect 6 0 8 0;
#X connect 7 0 14 0;
#X connect 7 0 21 0;
#X connect 8 0 2 1;
#X connect 9 0 10 0;
#X connect 9 0 23 0;
#X connect 10 0 12 0;
#X connect 11 0 12 1;
#X connect 11 0 22 0;
#X connect 12 0 6 1;
#X connect 13 0 6 0;
#X connect 14 0 13 0;
#X connect 15 0 1 0;
#X connect 16 0 15 0;
#X connect 16 0 18 0;
#X connect 17 0 1 1;
#X connect 18 0 17 1;
#X connect 19 0 15 1;
#X connect 19 0 17 0;
#X connect 20 0 19 1;
#X connect 24 0 25 0;
#X connect 24 0 26 0;
#X connect 24 0 27 0;
#X connect 25 0 9 0;
#X connect 26 0 11 0;
#X connect 27 0 7 0;
#X restore 243 504 pd section2;
#X obj 139 178 f 0;
#X obj 190 179 + 1;
#X obj 224 260 mod 100;
#X obj 239 449 spigot;
#X obj 85 364 spigot;
#X obj 55 337 r tick;
#X obj 213 421 r tick;
#X obj 312 409 ||;
#X obj 141 335 < 90;
#X obj 282 379 < 33;
#X obj 341 375 > 47;
#X msg 43 107 0;
#X floatatom 111 209 5 0 0 0 - - -;
#X obj 420 270 s stop;
#X obj 67 5 r stop;
#X obj 437 403 bng 15 250 50 0 empty empty empty 17 7 0 10 -262144
-1 -1;
#X obj 510 351 metro 100;
#X floatatom 643 424 5 0 0 0 - - -;
#X obj 681 391 + 10;
#X obj 691 633 s start;
#X obj 22 39 r start;
#X obj 476 307 tgl 15 0 empty empty empty 17 7 0 10 -262144 -1 -1 0
1;
#X msg 623 308 0;
#X obj 524 95 f 0;
#X obj 575 96 + 1;
#X floatatom 496 126 5 0 0 0 - - -;
#X obj 522 54 r tick;
#X obj 593 180 sel 0;
#N canvas 817 108 450 455 noter 0;
#X obj 63 29 inlet tick;
#X obj 126 399 dac~;
#X obj 174 266 osc~;
#X obj 135 368 *~;
#X obj 94 266 vline~;
#X msg 77 126 \$1 \$2 \, 0 2000 10;
#X obj 67 70 random 1000;
#X obj 68 99 / 1000;
#X floatatom 17 139 5 0 0 0 - - -;
#X obj 197 65 random 10;
#X obj 301 116 pow 1.05946;
#X floatatom 300 203 5 0 0 0 - - -;
#X obj 300 157 * 110;
#X text 348 86 2^(1/12);
#X text 347 153 f_0;
#X obj 185 329 +~;
#X obj 217 303 osc~;
#X obj 235 271 *~ 1.01;
#X connect 0 0 6 0;
#X connect 0 0 9 0;
#X connect 2 0 15 0;
#X connect 3 0 1 1;
#X connect 3 0 1 0;
#X connect 4 0 3 0;
#X connect 5 0 4 0;
#X connect 6 0 7 0;
#X connect 7 0 5 0;
#X connect 7 0 8 0;
#X connect 9 0 10 0;
#X connect 10 0 12 0;
#X connect 12 0 11 0;
#X connect 12 0 2 0;
#X connect 12 0 17 0;
#X connect 15 0 3 1;
#X connect 16 0 15 1;
#X connect 17 0 16 0;
#X restore 597 208 pd noter;
#X obj 567 148 mod 8;
#X obj 652 470 sel 200;
#X floatatom 711 571 5 0 0 0 - - -;
#X obj 657 601 sel 4;
#N canvas 543 56 698 617 coda 0;
#X obj 80 20 inlet hitme;
#X obj 55 66 tgl 15 0 empty empty empty 17 7 0 10 -262144 -1 -1 0 1
;
#X obj 84 235 bng 15 250 50 0 empty empty empty 17 7 0 10 -262144 -1
-1;
#X obj 82 104 metro 1000;
#X obj 126 151 del 500;
#X obj 179 203 del 150;
#X obj 200 544 dac~;
#X obj 59 324 vline~;
#X obj 164 481 *~;
#X obj 296 361 vline~;
#X obj 236 482 *~;
#X obj 163 398 noise~;
#X floatatom 504 294 5 0 0 0 - - -;
#X obj 542 261 + 1;
#X obj 480 260 f 0;
#X obj 508 338 sel 20;
#X msg 461 161 0;
#X msg 216 316 0.25 1 \, 1 1000 400 \, 0.8 3000 100 \, 0 1000 1;
#X msg 34 281 0.7 1 \, 0.5 300 10 \, 0.5 300 10 \, 0 500 150;
#X connect 0 0 1 0;
#X connect 0 0 16 0;
#X connect 1 0 3 0;
#X connect 2 0 14 0;
#X connect 2 0 17 0;
#X connect 2 0 18 0;
#X connect 3 0 2 0;
#X connect 3 0 4 0;
#X connect 4 0 2 0;
#X connect 4 0 5 0;
#X connect 5 0 2 0;
#X connect 7 0 8 0;
#X connect 8 0 6 0;
#X connect 9 0 10 0;
#X connect 10 0 6 1;
#X connect 11 0 8 1;
#X connect 11 0 10 1;
#X connect 12 0 15 0;
#X connect 13 0 14 1;
#X connect 14 0 12 0;
#X connect 14 0 13 0;
#X connect 15 0 1 0;
#X connect 16 0 14 0;
#X connect 17 0 9 0;
#X connect 18 0 7 0;
#X restore 626 631 pd coda;
#X obj 467 221 sel 100;
#X obj 337 39 loadbang;
#X msg 337 64 0;
#X obj 337 88 s reset;
#X obj 732 497 r reset;
#X obj 400 39 bng 15 250 50 0 empty empty empty 17 7 0 10 -262144 -1
-1;
#X obj 134 -3 key;
#X obj 133 22 sel 32;
#X obj 619 390 f;
#X obj 705 536 f 0;
#X obj 756 534 + 1;
#X obj 2 83 r reset;
#X obj 102 94 metro 100;
#N canvas 793 330 450 300 crashendo 1;
#X obj 137 148 dac~;
#X obj 165 83 noise~;
#X obj 142 113 *~;
#X obj 102 82 vline~;
#X msg 100 55 1 1 \, 0 250 1;
#X obj 98 14 inlet;
#X connect 1 0 2 1;
#X connect 2 0 0 1;
#X connect 2 0 0 0;
#X connect 3 0 2 0;
#X connect 4 0 3 0;
#X connect 5 0 4 0;
#X restore 431 437 pd crashendo;
#X connect 0 0 54 0;
#X connect 1 0 54 1;
#X connect 3 0 4 0;
#X connect 3 0 5 0;
#X connect 6 0 7 0;
#X connect 8 0 9 0;
#X connect 8 0 10 0;
#X connect 8 0 20 0;
#X connect 8 0 42 0;
#X connect 9 0 8 1;
#X connect 10 0 16 0;
#X connect 10 0 17 0;
#X connect 10 0 18 0;
#X connect 11 0 6 0;
#X connect 12 0 3 0;
#X connect 13 0 12 0;
#X connect 14 0 11 0;
#X connect 15 0 11 1;
#X connect 16 0 12 1;
#X connect 17 0 15 0;
#X connect 18 0 15 1;
#X connect 19 0 8 0;
#X connect 22 0 0 0;
#X connect 23 0 55 0;
#X connect 24 0 23 0;
#X connect 24 0 50 0;
#X connect 25 0 38 0;
#X connect 26 0 50 1;
#X connect 28 0 0 0;
#X connect 28 0 19 0;
#X connect 29 0 24 0;
#X connect 30 0 50 0;
#X connect 31 0 32 0;
#X connect 31 0 33 0;
#X connect 31 0 37 0;
#X connect 32 0 31 1;
#X connect 34 0 31 0;
#X connect 35 0 36 0;
#X connect 37 0 35 0;
#X connect 38 0 29 0;
#X connect 38 0 51 0;
#X connect 40 0 41 0;
#X connect 40 1 27 0;
#X connect 42 0 21 0;
#X connect 42 0 30 0;
#X connect 42 0 29 0;
#X connect 43 0 44 0;
#X connect 44 0 45 0;
#X connect 46 0 51 0;
#X connect 47 0 44 0;
#X connect 48 0 49 0;
#X connect 50 0 25 0;
#X connect 50 0 26 0;
#X connect 50 0 24 1;
#X connect 51 0 39 0;
#X connect 51 0 40 0;
#X connect 51 0 52 0;
#X connect 52 0 51 1;
#X connect 53 0 19 0;
#X connect 54 0 2 0;
#X connect 54 0 8 0;
