#N canvas 0 22 1523 1002 10;
#X obj 757 888 es4encoder~;
#X obj 758 930 dac~ 19 20;
#X obj 699 843 esx8cvencoder~;
#X obj 829 841 esx8cvencoder~;
#X obj 168 863 dac~ 1 2 3 4 5 6 7 8 9 10;
#X text 175 892 Scarlett analog outs;
#X obj 395 864 dac~ 11 12 13 14 15 16 17 18;
#X text 429 892 ES-3;
#X obj 106 54 adc~ 1 2 3 4 5 6 7 8;
#X text 110 29 Scarlett analog ins;
#X text 326 31 ES-6;
#X obj 323 58 adc~ 11 12 13 14 15 16;
#X obj 153 609 freeverb~;
#X obj 178 511 +~;
#X obj 580 436 *~ 0.5;
#X obj 578 408 vd~ delay1;
#X floatatom 569 339 5 0 0 0 - - -;
#X obj 575 366 sig~;
#X obj 243 320 *~ 0.1;
#X obj 615 313 delwrite~ delay1 4096;
#X obj 663 536 *~ 0.8;
#X connect 0 0 1 0;
#X connect 0 1 1 1;
#X connect 2 0 0 0;
#X connect 3 0 0 1;
#X connect 11 0 19 0;
#X connect 11 0 18 0;
#X connect 12 0 4 0;
#X connect 12 1 4 1;
#X connect 14 0 13 1;
#X connect 14 0 4 1;
#X connect 14 0 20 0;
#X connect 15 0 14 0;
#X connect 16 0 17 0;
#X connect 17 0 15 0;
#X connect 18 0 13 0;
#X connect 18 0 4 1;
#X connect 20 0 19 0;
