#N canvas 712 22 1452 876 10;
#X obj 625 831 dac~;
#X obj 974 342 midiout;
#X obj 967 25 tgl 15 0 empty empty empty 17 7 0 10 -262144 -1 -1 0
1;
#X obj 967 166 makenote;
#X obj 967 213 noteout;
#X obj 967 45 metro 500;
#X obj 966 85 random 12;
#X obj 966 106 + 36;
#X obj 1064 86 random 127;
#X obj 1162 88 random 250;
#X obj 608 736 +~;
#X obj 651 734 +~;
#X obj 474 37 adc~ 11 12 13 14 15 16;
#X obj 254 463 vsl 15 128 0 1 0 0 empty empty empty 0 -9 0 10 -262144
-1 -1 0 1;
#X obj 238 647 *~;
#X obj 400 460 vsl 15 128 0 1 0 0 empty empty empty 0 -9 0 10 -262144
-1 -1 0 1;
#X obj 321 651 *~;
#X floatatom 413 633 5 0 0 0 - - -, f 5;
#X floatatom 182 661 5 0 0 0 - - -, f 5;
#X obj 37 399 gnarlyverb 713 72 158 422;
#X obj 800 644 delread4~ d1;
#X obj 797 713 *~;
#X floatatom 803 615 5 0 0 0 - - -, f 5;
#X obj 807 522 delwrite~ d1 88000;
#X floatatom 838 693 5 0 0 0 - - -, f 5;
#X obj 934 710 *~ 0.7;
#X obj 1071 622 +~;
#X obj 795 122 channelstrip;
#X obj 435 105 channelstrip;
#X obj 540 105 channelstrip;
#X obj 652 109 channelstrip;
#X obj 260 85 channelstrip;
#X obj 111 76 channelstrip;
#X connect 2 0 5 0;
#X connect 3 0 4 0;
#X connect 3 1 4 1;
#X connect 5 0 6 0;
#X connect 5 0 8 0;
#X connect 5 0 9 0;
#X connect 6 0 7 0;
#X connect 7 0 3 0;
#X connect 8 0 3 1;
#X connect 9 0 3 2;
#X connect 10 0 0 0;
#X connect 11 0 0 1;
#X connect 12 0 19 0;
#X connect 12 0 32 0;
#X connect 12 1 19 1;
#X connect 12 1 31 0;
#X connect 12 2 28 0;
#X connect 12 3 29 0;
#X connect 12 4 30 0;
#X connect 12 5 27 0;
#X connect 13 0 14 1;
#X connect 13 0 18 0;
#X connect 14 0 10 0;
#X connect 15 0 16 1;
#X connect 15 0 17 0;
#X connect 16 0 11 0;
#X connect 19 0 14 0;
#X connect 19 1 16 0;
#X connect 20 0 21 0;
#X connect 20 0 25 0;
#X connect 21 0 11 0;
#X connect 22 0 20 0;
#X connect 24 0 21 1;
#X connect 25 0 26 0;
#X connect 26 0 23 0;
#X connect 31 0 11 0;
#X connect 32 0 10 0;
