#N canvas 1157 108 1307 720 10;
#X obj 47 540 dac~ 11 12 13 14 15 16 17 18;
#X obj 718 34 adc~ 9 10 11 12 13 14 15 16;
#X obj 438 392 midiin;
#X obj 432 441 midiout;
#X text 64 568 ES-3 outputs;
#X text 719 8 ES-6 inputs;
#X obj 777 511 midiout;
#X msg 824 455 2;
#X msg 755 314 248;
#X msg 709 391 250;
#X msg 707 450 252;
#X text 704 413 start;
#X text 705 474 stop;
#X obj 323 37 adc~ 1 2 3 4 5 6 7 8;
#X text 311 15 Scarlett Analog Inputs;
#X obj 1186 79 *~ 0.0625;
#X obj 1109 78 *~ 0.0625;
#X obj 1039 80 *~ 0.0625;
#X obj 971 81 *~ 0.0625;
#X obj 896 82 *~ 0.0625;
#X obj 814 79 *~ 0.0625;
#X obj 737 77 *~ 0.0625;
#X obj 666 74 *~ 0.0625;
#X obj 582 71 *~ 0.0625;
#X obj 512 72 *~ 0.0625;
#X obj 433 71 *~ 0.0625;
#X obj 362 68 *~ 0.0625;
#X obj 284 67 *~ 0.0625;
#X obj 206 70 *~ 0.0625;
#X obj 133 70 *~ 0.0625;
#X obj 65 68 *~ 0.0625;
#X obj 525 163 +~;
#X obj 884 172 +~;
#X obj 569 233 dac~ 1 2;
#X obj 138 377 writesf~ 2;
#X msg 108 299 start;
#X msg 129 330 stop;
#X msg 71 273 open /tmp/pd_soundfile.wav;
#X connect 1 0 22 0;
#X connect 1 1 21 0;
#X connect 1 2 20 0;
#X connect 1 3 19 0;
#X connect 1 4 18 0;
#X connect 1 5 17 0;
#X connect 1 6 16 0;
#X connect 1 7 15 0;
#X connect 2 0 3 0;
#X connect 2 1 3 1;
#X connect 7 0 6 1;
#X connect 8 0 6 0;
#X connect 9 0 6 0;
#X connect 10 0 6 0;
#X connect 13 0 30 0;
#X connect 13 1 29 0;
#X connect 13 2 28 0;
#X connect 13 3 27 0;
#X connect 13 4 26 0;
#X connect 13 5 25 0;
#X connect 13 6 24 0;
#X connect 13 7 23 0;
#X connect 15 0 32 0;
#X connect 16 0 32 0;
#X connect 17 0 32 0;
#X connect 18 0 32 0;
#X connect 19 0 32 0;
#X connect 20 0 32 0;
#X connect 21 0 32 0;
#X connect 22 0 32 0;
#X connect 23 0 31 0;
#X connect 24 0 31 0;
#X connect 25 0 31 0;
#X connect 26 0 31 0;
#X connect 27 0 31 0;
#X connect 28 0 31 0;
#X connect 29 0 31 0;
#X connect 30 0 31 0;
#X connect 31 0 33 0;
#X connect 31 0 34 0;
#X connect 32 0 33 1;
#X connect 32 0 34 1;
#X connect 35 0 34 0;
#X connect 36 0 34 0;
#X connect 37 0 34 0;
