#N canvas 561 228 450 300 10;
#X obj 111 128 es4encoder~;
#X obj 112 158 dac~ 9 10;
#X obj 86 72 esx8cvencoder~;
#X obj 189 75 esx8cvencoder~;
#X obj 82 8 osc~ 0.5;
#X obj 82 29 *~ 1024;
#X connect 0 0 1 0;
#X connect 0 1 1 1;
#X connect 2 0 0 0;
#X connect 3 0 0 1;
#X connect 4 0 5 0;
#X connect 5 0 2 0;
