#N canvas 212 498 915 613 10;
#X obj 199 333 example_schroeder_reverb;
#X obj 227 481 dac~ 1 2;
#X obj 75 442 vu 15 120 empty empty -1 -8 0 10 -66577 -1 1 0;
#X obj 143 444 vu 15 120 empty empty -1 -8 0 10 -66577 -1 1 0;
#X obj 73 396 snapshot~;
#X obj 142 396 snapshot~;
#X obj 53 313 tgl 15 0 empty empty empty 17 7 0 10 -262144 -1 -1 0
1;
#X obj 53 333 metro 100;
#X obj 215 240 *~;
#X obj 283 25 tgl 15 0 empty empty empty 17 7 0 10 -262144 -1 -1 1
1;
#X obj 283 45 metro 500;
#X obj 533 536 writesf~ 2;
#X msg 503 458 start;
#X msg 524 489 stop;
#X msg 466 432 open /tmp/pd_soundfile.wav;
#X obj 426 469 bng 15 250 50 0 empty empty empty 17 7 0 10 -262144
-1 -1;
#X obj 426 491 savepanel;
#X msg 281 75 1;
#X obj 316 76 delay 100;
#X msg 316 97 0;
#X obj 272 218 adsr 6 10 70 30 10;
#X obj 190 196 phasor~ 110;
#X obj 490 261 *~;
#X msg 556 96 1;
#X obj 591 97 delay 100;
#X msg 591 118 0;
#X obj 547 239 adsr 6 10 70 30 10;
#X obj 443 106 % 4;
#X obj 443 85 f;
#X obj 490 87 + 1;
#X obj 443 127 sel 0;
#X obj 465 217 phasor~ 137;
#X obj 234 303 *~ 0.5;
#X obj 234 282 +~;
#X connect 0 0 4 0;
#X connect 0 0 1 0;
#X connect 0 0 11 0;
#X connect 0 1 5 0;
#X connect 0 1 1 1;
#X connect 0 1 11 1;
#X connect 4 0 2 0;
#X connect 4 0 2 1;
#X connect 5 0 3 0;
#X connect 5 0 3 1;
#X connect 6 0 7 0;
#X connect 7 0 4 0;
#X connect 7 0 5 0;
#X connect 8 0 33 0;
#X connect 9 0 10 0;
#X connect 10 0 17 0;
#X connect 10 0 18 0;
#X connect 10 0 28 0;
#X connect 12 0 11 0;
#X connect 13 0 11 0;
#X connect 14 0 11 0;
#X connect 15 0 16 0;
#X connect 16 0 11 0;
#X connect 17 0 20 0;
#X connect 18 0 19 0;
#X connect 19 0 20 0;
#X connect 20 0 8 1;
#X connect 21 0 8 0;
#X connect 22 0 33 0;
#X connect 23 0 26 0;
#X connect 24 0 25 0;
#X connect 25 0 26 0;
#X connect 26 0 22 1;
#X connect 27 0 29 0;
#X connect 27 0 30 0;
#X connect 28 0 27 0;
#X connect 29 0 28 1;
#X connect 30 0 24 0;
#X connect 30 0 23 0;
#X connect 31 0 22 0;
#X connect 32 0 0 0;
#X connect 33 0 32 0;
