#N canvas 850 132 1470 1119 10;
#X obj 495 576 noise~;
#X obj 495 607 *~;
#X obj 221 1061 dac~, f 5;
#X obj 495 679 +~;
#X obj 548 392 bng 15 250 50 0 empty empty empty 17 7 0 10 -262144
-1 -1;
#X msg 549 527 1;
#X obj 592 527 delay 50;
#X msg 592 548 0;
#X floatatom 316 523 5 0 0 0 - - -, f 5;
#X obj 599 41 threshold~ 0.75 1 0.25 1;
#X obj 549 577 adsr 10 5 10 10 10;
#X obj 377 640 lop~ 6000;
#X obj 495 644 *~ 0.5;
#X obj 281 493 random 20;
#X obj 194 635 mwn/clip~;
#X obj 193 592 *~;
#X floatatom 209 551 5 0 0 0 - - -, f 5;
#X obj 599 18 phasor~ 100;
#X obj 598 135 f;
#X obj 640 135 + 1;
#X obj 560 207 sel 0;
#X obj 627 207 sel 0;
#X obj 627 186 % 128;
#X obj 598 93 spigot;
#X obj 513 22 tgl 15 0 empty empty empty 17 7 0 10 -262144 -1 -1 1
1;
#X obj 367 609 *~ 0.7;
#X obj 425 141 pow;
#X msg 401 97 2;
#X obj 439 97 + 3;
#X obj 560 186 % 4;
#X obj 439 76 random 3;
#X obj 209 519 random 5;
#X obj 268 868 example_schroeder_reverb;
#X obj 495 703 delwrite~ \$0-delay 1024;
#X obj 281 551 delread4~ \$0-delay 10;
#X obj 592 503 + 10;
#X obj 116 973 +~;
#X obj 400 1001 +~;
#X obj 268 835 +~;
#X obj 898 301 pow;
#X msg 874 257 2;
#X obj 912 257 + 3;
#X obj 912 236 random 3;
#X obj 731 222 sel 0;
#X obj 731 201 % 4;
#X obj 767 392 bng 15 250 50 0 empty empty empty 17 7 0 10 -262144
-1 -1;
#X obj 796 619 *~;
#X obj 796 679 +~;
#X obj 796 700 delwrite~ \$0-delay2 512;
#X msg 926 530 1;
#X obj 969 530 delay 50;
#X msg 969 551 0;
#X obj 969 506 + 10;
#X obj 969 485 random 200;
#X obj 1036 623 delread4~ \$0-delay2 10;
#X obj 327 779 *~ 0.5;
#X obj 238 772 *~ 0.5;
#X obj 1040 704 lop~ 12000;
#X obj 896 577 adsr 10 5 10 10 10;
#X obj 1040 683 *~ 0.9;
#X obj 796 640 *~ 0.1;
#X obj 739 502 osc~ 550;
#X obj 1119 521 random 20;
#X obj 193 933 *~ 0.3;
#X obj 416 962 *~ 0.3;
#X obj 132 934 *~ 0.3;
#X obj 592 482 random 100;
#X obj 484 962 *~ 0.4;
#X floatatom 801 555 5 0 0 0 - - -, f 5;
#X floatatom 841 554 5 0 0 0 - - -, f 5;
#X obj 72 933 *~ 0.05;
#X obj 356 961 *~ 0..05;
#X obj 796 598 bob~;
#X msg 784 527 1920;
#X msg 837 525 11;
#X connect 0 0 1 0;
#X connect 1 0 12 0;
#X connect 3 0 33 0;
#X connect 4 0 5 0;
#X connect 4 0 66 0;
#X connect 5 0 10 0;
#X connect 6 0 7 0;
#X connect 7 0 10 0;
#X connect 8 0 34 0;
#X connect 9 0 23 0;
#X connect 10 0 1 1;
#X connect 11 0 3 0;
#X connect 12 0 3 0;
#X connect 13 0 8 0;
#X connect 13 0 34 0;
#X connect 14 0 56 0;
#X connect 14 0 70 0;
#X connect 14 0 71 0;
#X connect 15 0 14 0;
#X connect 16 0 15 1;
#X connect 17 0 9 0;
#X connect 18 0 19 0;
#X connect 18 0 22 0;
#X connect 18 0 29 0;
#X connect 18 0 44 0;
#X connect 19 0 18 1;
#X connect 20 0 4 0;
#X connect 20 0 27 0;
#X connect 20 0 30 0;
#X connect 20 0 31 0;
#X connect 21 0 13 0;
#X connect 21 0 62 0;
#X connect 22 0 21 0;
#X connect 23 0 18 0;
#X connect 24 0 23 1;
#X connect 25 0 11 0;
#X connect 26 0 29 1;
#X connect 27 0 26 0;
#X connect 28 0 26 1;
#X connect 29 0 20 0;
#X connect 30 0 28 0;
#X connect 31 0 16 0;
#X connect 32 0 65 0;
#X connect 32 1 64 0;
#X connect 34 0 15 0;
#X connect 34 0 25 0;
#X connect 35 0 6 0;
#X connect 36 0 2 0;
#X connect 37 0 2 1;
#X connect 38 0 32 0;
#X connect 39 0 44 1;
#X connect 40 0 39 0;
#X connect 41 0 39 1;
#X connect 42 0 41 0;
#X connect 43 0 40 0;
#X connect 43 0 42 0;
#X connect 43 0 45 0;
#X connect 44 0 43 0;
#X connect 45 0 49 0;
#X connect 45 0 53 0;
#X connect 46 0 60 0;
#X connect 47 0 48 0;
#X connect 49 0 58 0;
#X connect 50 0 51 0;
#X connect 51 0 58 0;
#X connect 52 0 50 0;
#X connect 53 0 52 0;
#X connect 54 0 59 0;
#X connect 54 0 55 0;
#X connect 54 0 63 0;
#X connect 54 0 67 0;
#X connect 55 0 38 0;
#X connect 56 0 38 0;
#X connect 57 0 47 0;
#X connect 58 0 46 1;
#X connect 59 0 57 0;
#X connect 60 0 47 0;
#X connect 61 0 72 0;
#X connect 62 0 54 0;
#X connect 63 0 36 0;
#X connect 64 0 37 0;
#X connect 65 0 36 0;
#X connect 66 0 35 0;
#X connect 67 0 37 0;
#X connect 68 0 72 1;
#X connect 69 0 72 2;
#X connect 70 0 36 0;
#X connect 71 0 37 0;
#X connect 72 0 46 0;
#X connect 73 0 68 0;
#X connect 74 0 69 0;
