#N canvas 574 249 1592 723 10;
#X obj 112 27 es6-setup;
#X obj 329 524 dac~ 1 2;
#X obj 112 200 panknob;
#X obj 212 203 panknob;
#X obj 303 201 panknob;
#X obj 391 204 panknob;
#X obj 481 205 panknob;
#X obj 568 208 panknob;
#X obj 688 24 ScarlettAnalogChannels;
#X obj 915 541 dac~ 1 2;
#X obj 698 217 panknob;
#X obj 798 220 panknob;
#X obj 889 218 panknob;
#X obj 977 221 panknob;
#X obj 1067 222 panknob;
#X obj 1154 225 panknob;
#X obj 1230 224 panknob;
#X obj 1317 227 panknob;
#X connect 0 0 2 0;
#X connect 0 1 3 0;
#X connect 0 2 4 0;
#X connect 0 3 5 0;
#X connect 0 4 6 0;
#X connect 0 5 7 0;
#X connect 2 0 1 0;
#X connect 2 1 1 1;
#X connect 3 0 1 0;
#X connect 3 1 1 1;
#X connect 4 0 1 0;
#X connect 4 1 1 1;
#X connect 5 0 1 0;
#X connect 5 1 1 1;
#X connect 6 0 1 0;
#X connect 6 1 1 1;
#X connect 7 0 1 0;
#X connect 7 1 1 1;
#X connect 8 0 10 0;
#X connect 8 1 11 0;
#X connect 8 2 12 0;
#X connect 8 3 13 0;
#X connect 8 4 14 0;
#X connect 8 5 15 0;
#X connect 8 6 16 0;
#X connect 8 7 17 0;
#X connect 10 0 9 0;
#X connect 10 1 9 1;
#X connect 11 0 9 0;
#X connect 11 1 9 1;
#X connect 12 0 9 0;
#X connect 12 1 9 1;
#X connect 13 0 9 0;
#X connect 13 1 9 1;
#X connect 14 0 9 0;
#X connect 14 1 9 1;
#X connect 15 0 9 0;
#X connect 15 1 9 1;
#X connect 16 0 9 0;
#X connect 16 1 9 1;
#X connect 17 0 9 0;
#X connect 17 1 9 1;
