#N canvas 176 92 1180 732 12;
#X obj 402 152 *~ 1;
#X obj 402 176 +~ 0;
#X obj 401 76 osc~ 0.5;
#X obj 405 446 dac~ 11 12 13 14 15 16 17 18;
#X obj 757 359 dac~ 9 10;
#X obj 757 314 es5encoder~;
#X obj 744 256 esx8cvencoder~;
#X obj 741 193 +~;
#X obj 741 169 *~ 2048;
#X obj 875 251 esx8cvencoder~;
#X connect 0 0 1 0;
#X connect 1 0 3 0;
#X connect 1 0 3 1;
#X connect 1 0 3 7;
#X connect 2 0 0 0;
#X connect 2 0 8 0;
#X connect 5 0 4 0;
#X connect 5 1 4 1;
#X connect 6 0 5 0;
#X connect 7 0 6 0;
#X connect 7 0 6 7;
#X connect 7 0 9 0;
#X connect 7 0 9 7;
#X connect 8 0 7 0;
#X connect 9 0 5 1;
