#N canvas 562 24 1090 672 12;
#X obj 624 448 dac~ 1 2;
#X obj 808 157 dac~ 3 4;
#X text 495 53 eurorack -> 500 -> RNC ->;
#X text 864 190 -> springray ->;
#X text 897 158 PB 11 12;
#X obj 713 54 adc~ 7 8;
#X obj 815 298 adc~ 5 6;
#X obj 947 317 knob 32 32 0 1 0 0 empty empty empty 0 -8 0 8 2.26859e+06
1 2.26862e+06 500 1;
#X floatatom 947 362 8 0 0 0 - - -;
#X floatatom 947 290 5 0 0 0 - - -;
#X obj 860 362 *~;
#X obj 815 361 *~;
#X obj 48 565 es5encoder~;
#X obj 49 532 esx8cvencoder~;
#X obj 50 608 dac~ 9 10;
#X obj 235 11 tgl 15 0 empty empty empty 17 7 0 10 -262144 -1 -1 0
1;
#X obj 81 93 f;
#X obj 149 95 + 1;
#X obj 81 141 sel 0;
#X obj 58 289 *~ 2048;
#X obj 81 118 mod 4;
#X obj 81 69 metro 30;
#X obj 234 49 * 2048;
#X floatatom 54 18 5 0 0 0 - - -;
#X obj 190 466 *~ 2048;
#X obj 278 475 *~ 2048;
#N canvas 0 22 450 300 tgr 0;
#X msg 56 207 1;
#X msg 106 207 0;
#X obj 106 174 del 25;
#X obj 72 26 inlet;
#X obj 73 249 outlet;
#X connect 0 0 4 0;
#X connect 1 0 4 0;
#X connect 2 0 1 0;
#X connect 3 0 2 0;
#X connect 3 0 0 0;
#X restore 277 441 pd tgr;
#N canvas 0 22 450 300 tgr 0;
#X msg 56 207 1;
#X msg 106 207 0;
#X obj 72 26 inlet;
#X obj 73 249 outlet;
#X obj 106 174 del 50;
#X connect 0 0 3 0;
#X connect 1 0 3 0;
#X connect 2 0 0 0;
#X connect 2 0 4 0;
#X connect 4 0 1 0;
#X restore 192 428 pd tgr;
#N canvas 18 424 450 300 tgr 0;
#X msg 56 207 1;
#X msg 106 207 0;
#X obj 106 174 del 25;
#X obj 72 26 inlet;
#X obj 73 249 outlet;
#X connect 0 0 4 0;
#X connect 1 0 4 0;
#X connect 2 0 1 0;
#X connect 3 0 2 0;
#X connect 3 0 0 0;
#X restore 54 193 pd tgr;
#X obj 234 73 s run;
#X obj 76 475 r run;
#X floatatom 262 331 5 0 0 0 - - -;
#X obj 273 379 bng 15 250 50 0 empty empty empty 17 7 0 10 -262144
-1 -1;
#X obj 161 386 bng 15 250 50 0 empty empty empty 17 7 0 10 -262144
-1 -1;
#X obj 193 346 sel 0 1;
#X obj 191 298 random 16;
#X obj 657 618 writesf~ 2;
#X obj 475 479 bng 15 250 50 0 empty empty empty 17 7 0 10 -262144
-1 -1;
#X msg 475 528 open \$1;
#X obj 477 557 print;
#X obj 475 504 savepanel;
#X obj 558 479 tgl 15 0 empty empty empty 17 7 0 10 -262144 -1 -1 0
1;
#X msg 557 535 start;
#X msg 608 536 stop;
#X obj 556 505 sel 1 0;
#X obj 729 499 +~;
#X obj 789 507 +~;
#X connect 5 0 1 0;
#X connect 5 0 0 0;
#X connect 5 0 45 0;
#X connect 5 1 1 1;
#X connect 5 1 0 1;
#X connect 5 1 46 0;
#X connect 6 0 11 0;
#X connect 6 1 10 0;
#X connect 7 0 8 0;
#X connect 7 0 10 1;
#X connect 7 0 11 1;
#X connect 9 0 7 0;
#X connect 10 0 0 1;
#X connect 10 0 46 0;
#X connect 11 0 0 0;
#X connect 11 0 45 0;
#X connect 12 0 14 0;
#X connect 12 1 14 1;
#X connect 13 0 12 0;
#X connect 15 0 21 0;
#X connect 15 0 22 0;
#X connect 16 0 17 0;
#X connect 16 0 20 0;
#X connect 17 0 16 1;
#X connect 18 0 28 0;
#X connect 18 0 35 0;
#X connect 19 0 13 0;
#X connect 19 0 13 7;
#X connect 20 0 18 0;
#X connect 21 0 16 0;
#X connect 22 0 29 0;
#X connect 23 0 21 1;
#X connect 24 0 13 3;
#X connect 25 0 13 4;
#X connect 26 0 25 0;
#X connect 27 0 24 0;
#X connect 28 0 19 0;
#X connect 30 0 13 1;
#X connect 34 0 27 0;
#X connect 34 0 33 0;
#X connect 34 1 26 0;
#X connect 34 1 32 0;
#X connect 35 0 31 0;
#X connect 35 0 34 0;
#X connect 37 0 40 0;
#X connect 38 0 39 0;
#X connect 38 0 36 0;
#X connect 40 0 38 0;
#X connect 41 0 44 0;
#X connect 42 0 36 0;
#X connect 43 0 36 0;
#X connect 44 0 42 0;
#X connect 44 1 43 0;
#X connect 45 0 36 0;
#X connect 46 0 36 1;
