#N canvas 424 300 822 593 12;
#X obj 105 46 notein, f 14;
#X obj 105 70 mtof;
#X floatatom 105 94 5 0 0 0 - - -;
#X obj 169 84 sel 0;
#X obj 209 128 t f b;
#X obj 270 197 bng 15 250 50 0 empty empty empty 17 7 0 10 -262144
-1 -1;
#X floatatom 205 190 5 0 0 0 - - -;
#X obj 165 176 bng 15 250 50 0 empty empty empty 17 7 0 10 -262144
-1 -1;
#X obj 382 361 vline~;
#X obj 205 213 / 127;
#X obj 358 427 *~;
#X msg 293 306 0 1000, f 8;
#X obj 103 384 osc~;
#X obj 156 464 *~;
#X obj 149 518 dac~;
#X msg 409 310 \$1 10, f 8;
#X obj 146 285 osc~;
#X obj 132 236 *~ 2;
#X obj 102 346 +~;
#X obj 144 323 *~;
#X floatatom 192 318 5 0 0 0 - - -;
#X connect 0 0 1 0;
#X connect 0 1 3 0;
#X connect 1 0 2 0;
#X connect 2 0 17 0;
#X connect 2 0 18 0;
#X connect 3 0 7 0;
#X connect 3 1 4 0;
#X connect 4 0 6 0;
#X connect 4 1 5 0;
#X connect 6 0 9 0;
#X connect 7 0 11 0;
#X connect 8 0 10 0;
#X connect 8 0 10 1;
#X connect 9 0 15 0;
#X connect 10 0 13 1;
#X connect 11 0 8 0;
#X connect 12 0 13 0;
#X connect 13 0 14 0;
#X connect 13 0 14 1;
#X connect 15 0 8 0;
#X connect 16 0 19 0;
#X connect 17 0 16 0;
#X connect 18 0 12 0;
#X connect 19 0 18 1;
#X connect 20 0 19 1;
