#N canvas 815 278 836 649 12;
#X obj 665 323 noise~;
#X obj 319 552 dac~ 1 2;
#X obj 701 386 *~;
#X msg 782 377 0;
#X msg 732 319 1;
#X obj 767 278 bng 15 250 50 0 empty empty empty 17 7 0 10 -262144
-1 -1;
#X obj 783 347 delay 25;
#X obj 694 457 delwrite~ del 500;
#X obj 249 403 delread4~ del;
#X floatatom 249 372 5 0 0 0 - - -;
#X obj 337 475 lop~ 5000;
#X obj 253 111 r notes;
#X floatatom 250 144 5 0 0 0 - - -;
#X obj 269 184 t b f;
#X floatatom 383 406 5 0 1 0 - - -;
#X obj 333 444 *~;
#X text 292 371 delay time (pitch);
#X text 440 406 decay (max 1);
#X floatatom 250 270 5 0 0 0 - - -;
#X text 298 270 MIDI note;
#X obj 250 295 mtof;
#X obj 250 319 expr 1000 / $f1;
#X floatatom 54 90 0 0 0 0 - - -;
#X obj 35 39 notein;
#X floatatom 35 113 0 0 0 0 - - -;
#X floatatom 74 65 0 0 0 0 - - -;
#X text 84 91 velocity;
#X text 103 67 channel;
#X text 85 38 (omni);
#X text 65 113 note;
#X text 31 2 Karplus-Strong;
#X connect 0 0 2 0;
#X connect 2 0 7 0;
#X connect 3 0 2 1;
#X connect 4 0 2 1;
#X connect 5 0 4 0;
#X connect 5 0 6 0;
#X connect 6 0 3 0;
#X connect 8 0 1 0;
#X connect 8 0 1 1;
#X connect 8 0 15 0;
#X connect 9 0 8 0;
#X connect 10 0 7 0;
#X connect 11 0 12 0;
#X connect 12 0 13 0;
#X connect 12 0 18 0;
#X connect 13 0 5 0;
#X connect 14 0 15 1;
#X connect 15 0 10 0;
#X connect 18 0 20 0;
#X connect 20 0 21 0;
#X connect 21 0 9 0;
#X connect 23 0 24 0;
#X connect 23 1 22 0;
#X connect 23 2 25 0;
#X connect 24 0 12 0;
