#N canvas 459 118 1199 876 12;
#X obj 629 206 delread4~ buf1;
#X floatatom 627 163 5 0 0 0 - - -;
#X obj 63 186 noise~;
#X obj 103 261 *~;
#X obj 137 231 *~;
#X obj 653 357 *~;
#X floatatom 738 308 5 0 0 0 - - -;
#X obj 791 761 *~;
#X obj 791 813 dac~;
#X obj 329 528 delwrite~ buf1 500;
#X floatatom 830 714 5 0 0 0 - - -;
#X obj 137 167 vline~;
#X obj 630 301 lop~ 300;
#X obj 862 60 loadbang;
#X msg 861 107 0.97;
#X obj 262 342 delay~ 11;
#X floatatom 323 300 5 0 0 0 - - -;
#X obj 44 16 tgl 15 0 empty empty empty 17 7 0 10 -262144 -1 -1 1 1
;
#X obj 44 36 metro 1000;
#X msg 735 67 22;
#X floatatom 685 255 5 0 0 0 - - -;
#X msg 768 156 300;
#X obj 169 355 *~ -1;
#X msg 137 143 1 \, 0 55;
#X obj 616 561 *~ -1;
#X floatatom 727 506 5 0 0 0 - - -;
#X obj 685 563 delay~;
#X obj 909 539 bp~, f 8;
#X floatatom 935 465 5 0 0 0 - - -;
#X floatatom 999 461 5 0 0 0 - - -;
#X connect 0 0 12 0;
#X connect 1 0 0 0;
#X connect 2 0 3 0;
#X connect 3 0 15 0;
#X connect 3 0 22 0;
#X connect 4 0 3 1;
#X connect 5 0 9 0;
#X connect 5 0 24 0;
#X connect 5 0 26 0;
#X connect 5 0 27 0;
#X connect 6 0 5 1;
#X connect 7 0 8 0;
#X connect 7 0 8 1;
#X connect 10 0 7 1;
#X connect 11 0 4 0;
#X connect 11 0 4 1;
#X connect 12 0 5 0;
#X connect 13 0 14 0;
#X connect 13 0 19 0;
#X connect 13 0 21 0;
#X connect 14 0 6 0;
#X connect 15 0 9 0;
#X connect 16 0 15 1;
#X connect 17 0 18 0;
#X connect 18 0 23 0;
#X connect 19 0 1 0;
#X connect 20 0 12 1;
#X connect 21 0 20 0;
#X connect 22 0 9 0;
#X connect 23 0 11 0;
#X connect 24 0 7 0;
#X connect 25 0 26 1;
#X connect 26 0 7 0;
#X connect 27 0 7 0;
#X connect 28 0 27 1;
#X connect 29 0 27 2;
