#N canvas 567 105 1058 869 12;
#X obj 536 778 dac~ 1 2;
#X obj 550 726 *~;
#X floatatom 585 701 5 0 0 0 - - -;
#X floatatom 469 372 5 0 0 0 - - -;
#X obj 470 348 mwn.counter 12;
#X obj 401 436 mwn.counter 8;
#N canvas 0 22 501 436 zap 1;
#X obj 108 24 inlet;
#X obj 152 299 outlet~;
#X obj 153 255 *~;
#X obj 89 183 phasor~ 449;
#X obj 294 193 vline~;
#X obj 46 139 vline~;
#X msg 289 115 1 3 \, 0.25 0 100 \, 0 0 100;
#X msg 44 112 889 0 \, 220 55 0 \, 0 55 0;
#X connect 0 0 6 0;
#X connect 0 0 7 0;
#X connect 2 0 1 0;
#X connect 3 0 2 0;
#X connect 4 0 2 1;
#X connect 5 0 3 0;
#X connect 6 0 4 0;
#X connect 7 0 5 0;
#X restore 417 544 pd zap;
#X obj 317 534 bng 15 250 50 0 empty empty empty 17 7 0 10 -262144
-1 -1;
#X obj 401 460 sel 1;
#N canvas 256 255 450 300 chk 1;
#X obj 160 2 inlet;
#X obj 166 249 outlet~;
#X obj 43 33 noise~;
#X obj 166 211 *~;
#X obj 252 110 vline~;
#X obj 137 130 osc~ 1200;
#X msg 251 70 1 0 \, 0.2 55 0 \, 0 55 0;
#X obj 100 94 *~;
#X obj 127 53 osc~ 1000;
#X connect 0 0 6 0;
#X connect 2 0 7 0;
#X connect 3 0 1 0;
#X connect 4 0 3 1;
#X connect 5 0 3 0;
#X connect 6 0 4 0;
#X connect 8 0 7 1;
#X restore 708 435 pd chk;
#X obj 330 332 bng 15 250 50 0 empty empty empty 17 7 0 10 -262144
-1 -1;
#X floatatom 559 199 5 0 0 0 - - -;
#X obj 165 396 mwn.counter 8;
#N canvas 0 22 501 523 zap 1;
#X obj 108 24 inlet;
#X obj 160 391 outlet~;
#X obj 159 275 *~;
#X obj 89 183 phasor~ 449;
#X obj 294 193 vline~;
#X obj 46 139 vline~;
#X msg 289 115 1 3 \, 0.25 0 100 \, 0 0 100;
#X msg 44 112 889 0 \, 220 55 0 \, 0 55 0;
#X obj 160 332 cyclone/gate~;
#X connect 0 0 6 0;
#X connect 0 0 7 0;
#X connect 2 0 8 0;
#X connect 3 0 2 0;
#X connect 4 0 2 1;
#X connect 5 0 3 0;
#X connect 6 0 4 0;
#X connect 7 0 5 0;
#X connect 8 0 1 0;
#X restore 181 504 pd zap;
#X obj 165 420 sel 1;
#X obj 292 101 mwn.timebase 11 0;
#X obj 137 199 mwn.timebase 11 1;
#X connect 1 0 0 0;
#X connect 1 0 0 1;
#X connect 2 0 1 1;
#X connect 4 0 3 0;
#X connect 4 0 9 0;
#X connect 5 0 8 0;
#X connect 6 0 1 0;
#X connect 8 0 6 0;
#X connect 8 0 7 0;
#X connect 9 0 1 0;
#X connect 10 0 5 0;
#X connect 10 0 4 0;
#X connect 12 0 14 0;
#X connect 13 0 1 0;
#X connect 14 0 13 0;
#X connect 15 0 10 0;
#X connect 15 0 11 0;
#X connect 16 0 12 0;
