#N canvas 471 290 540 456 12;
#X obj 37 37 mwn/time/midi_clock_in;
#X floatatom 27 86 5 0 0 0 - - -;
#X obj 181 99 tgl 15 0 empty empty empty 17 7 0 10 -262144 -1 -1 1
1;
#X obj 69 331 es4encoder~;
#X obj 69 355 dac~ 9 10;
#X obj 68 303 esx8cvencoder~;
#X obj 35 192 bng 15 250 50 0 empty empty empty 17 7 0 10 -262144 -1
-1;
#X obj 36 150 sel 0;
#X obj 36 126 % 64;
#X obj 153 254 mwn/util/trig 15 1024;
#X obj 99 156 sel 0;
#X obj 99 132 % 64;
#X obj 70 224 mwn/util/trig 66 2048;
#X connect 0 0 1 0;
#X connect 0 1 2 0;
#X connect 1 0 8 0;
#X connect 1 0 11 0;
#X connect 3 0 4 0;
#X connect 3 1 4 1;
#X connect 5 0 3 0;
#X connect 6 0 12 0;
#X connect 7 0 6 0;
#X connect 8 0 7 0;
#X connect 9 0 5 1;
#X connect 10 0 9 0;
#X connect 11 0 10 0;
#X connect 12 0 5 0;
