#N canvas 2 0 1377 971 12;
#X obj 1089 789 dac~ 1 2;
#X obj 121 -226 tgl 15 0 empty empty empty 17 7 0 10 -262144 -1 -1
0 1;
#X obj 307 758 *~;
#X obj 355 516 vline~;
#X obj 1110 435 dac~ 3;
#X obj 1109 488 adc~ 1;
#X obj 190 481 vline~;
#X obj 192 548 phasor~;
#X obj 135 436 bng 15 250 50 0 empty empty empty 17 7 0 10 -262144
-1 -1;
#X obj 1092 553 dac~ 4 5;
#X obj 1090 589 adc~ 7 8;
#X text 1180 431 TO 500;
#X text 1183 487 FROM 500;
#X text 1186 549 TO Reverb;
#X text 1189 587 FROM Reverb;
#X obj 1096 302 catch~ mbus;
#X obj 196 385 b;
#X obj 121 -130 metro;
#X floatatom 168 -155 5 0 0 0 - - -;
#X obj 122 -99 f;
#X obj 160 -99 + 1;
#X msg 454 -100 150;
#X obj 454 -64 s tempo;
#X obj 177 -203 r tempo;
#X obj 310 836 throw~ mbus;
#X msg 454 -100;
#X msg 540 -98 1200;
#X floatatom 596 -158 5 0 0 0 - - -;
#X obj 454 -124 sel 0 20, f 25;
#X obj 454 -148 mod 24;
#X obj 233 598 delread4~ del1;
#X obj 73 704 delwrite~ del1 500;
#X obj 190 517 *~;
#X obj 191 641 *~ 0.6;
#X obj 1183 740 +~;
#X obj 1156 659 *~;
#X obj 1043 663 *~;
#X floatatom 1088 641 5 0 0 0 - - -;
#X floatatom 1201 630 5 0 0 0 - - -;
#X obj 1033 726 +~;
#X obj 914 271 vsl 15 128 0 1 0 0 empty empty empty 0 -9 0 10 -262144
-1 -1 7200 1;
#X obj 832 615 *~;
#X obj 892 615 *~;
#X obj 914 407 f;
#X obj 913 441 sig~;
#X obj 913 465 lop~ 1;
#X floatatom 940 432 5 0 0 0 - - -;
#X obj 847 512 sqrt~;
#X obj 912 511 sig~ 1;
#X obj 912 535 -~;
#X obj 912 559 sqrt~;
#X obj 769 744 scope~ 130 130 256 3 128 -1 1 0 0 0 0 205 229 232 74
79 77 96 98 102 0;
#X obj 122 -22 mod 12;
#X obj 122 2 sel 0;
#X obj 121 38 f;
#X obj 170 31 + 1;
#X floatatom 134 -75 5 0 0 0 - - -;
#X floatatom 144 59 5 0 0 0 - - -;
#X obj 122 133 sel 0;
#X obj 124 171 f;
#X obj 172 171 + 1;
#X floatatom 146 199 5 0 0 0 - - -;
#X text 200 64 q notes;
#X text 210 203 measures;
#X obj 122 109 mod 4;
#X obj 48 23 s qnote;
#X obj 50 159 s bar;
#X obj 64 -69 mod 3;
#X obj 64 -44 sel 0;
#X obj 64 -19 s trpl;
#X obj 134 333 r qnote;
#X msg 355 485 1 \, 0 77;
#X msg 189 438 14 \, 16 33 \, 6 22;
#X obj 1134 389 +~;
#X obj 530 84 r trpl;
#X obj 530 108 t b;
#X obj 533 178 vline~;
#X obj 486 255 *~;
#X obj 488 295 throw~ mbus;
#X obj 442 171 noise~;
#X obj 531 220 *~;
#X msg 532 146 1 \, 0 55;
#X obj 269 -210 loadbang;
#X msg 269 -185 33;
#X connect 1 0 17 0;
#X connect 2 0 24 0;
#X connect 3 0 2 1;
#X connect 5 0 9 1;
#X connect 5 0 9 0;
#X connect 6 0 32 0;
#X connect 6 0 32 1;
#X connect 7 0 31 0;
#X connect 10 0 36 0;
#X connect 10 1 35 0;
#X connect 15 0 42 0;
#X connect 15 0 41 0;
#X connect 15 0 73 0;
#X connect 16 0 71 0;
#X connect 16 0 72 0;
#X connect 16 0 8 0;
#X connect 17 0 19 0;
#X connect 18 0 17 1;
#X connect 19 0 20 0;
#X connect 19 0 52 0;
#X connect 19 0 56 0;
#X connect 19 0 67 0;
#X connect 20 0 19 1;
#X connect 21 0 22 0;
#X connect 23 0 18 0;
#X connect 26 0 22 0;
#X connect 28 0 21 0;
#X connect 28 0 25 0;
#X connect 28 1 26 0;
#X connect 29 0 27 0;
#X connect 29 0 28 0;
#X connect 30 0 2 0;
#X connect 30 0 33 0;
#X connect 32 0 7 0;
#X connect 33 0 31 0;
#X connect 34 0 0 1;
#X connect 35 0 34 0;
#X connect 36 0 39 0;
#X connect 37 0 36 1;
#X connect 38 0 35 1;
#X connect 39 0 0 0;
#X connect 40 0 43 0;
#X connect 41 0 39 0;
#X connect 42 0 34 0;
#X connect 43 0 44 0;
#X connect 43 0 46 0;
#X connect 44 0 45 0;
#X connect 45 0 47 0;
#X connect 45 0 49 1;
#X connect 47 0 41 1;
#X connect 48 0 49 0;
#X connect 49 0 50 0;
#X connect 50 0 42 1;
#X connect 52 0 53 0;
#X connect 53 0 54 0;
#X connect 53 0 65 0;
#X connect 54 0 55 0;
#X connect 54 0 57 0;
#X connect 54 0 64 0;
#X connect 55 0 54 1;
#X connect 58 0 59 0;
#X connect 58 0 66 0;
#X connect 59 0 60 0;
#X connect 59 0 61 0;
#X connect 60 0 59 1;
#X connect 64 0 58 0;
#X connect 67 0 68 0;
#X connect 68 0 69 0;
#X connect 70 0 16 0;
#X connect 71 0 3 0;
#X connect 72 0 6 0;
#X connect 73 0 4 0;
#X connect 74 0 75 0;
#X connect 75 0 81 0;
#X connect 76 0 80 0;
#X connect 76 0 80 1;
#X connect 77 0 78 0;
#X connect 79 0 77 0;
#X connect 80 0 77 1;
#X connect 81 0 76 0;
#X connect 82 0 83 0;
#X connect 83 0 18 0;
