#N canvas 754 107 780 696 12;
#X obj 260 39 osc~ 1;
#X obj 161 323 dac~ 11 12 13 14 15 16 17 18;
#X obj 458 324 esx8cvencoder~;
#X obj 490 371 es4encoder~;
#X obj 490 401 dac~ 9 10;
#X obj 573 323 esx8cvencoder~;
#X obj 544 174 *~ 2048;
#X connect 0 0 1 0;
#X connect 0 0 1 1;
#X connect 0 0 1 2;
#X connect 0 0 1 3;
#X connect 0 0 1 4;
#X connect 0 0 1 5;
#X connect 0 0 1 6;
#X connect 0 0 1 7;
#X connect 0 0 6 0;
#X connect 2 0 3 0;
#X connect 3 0 4 0;
#X connect 3 1 4 1;
#X connect 5 0 3 1;
#X connect 6 0 2 0;
#X connect 6 0 5 7;
