#N canvas 507 302 729 550 12;
#X obj 161 372 metro;
#X floatatom 444 88 5 0 0 0 MS_Per_Beat - -;
#X floatatom 420 192 5 0 0 0 BPM - -;
#X obj 345 134 expr 60000/$f1;
#X obj 345 37 inlet tempo;
#X obj 116 39 inlet start;
#X obj 368 501 outlet bpm;
#X obj 167 509 outlet totalcount;
#X obj 160 409 f 0;
#X obj 230 411 + 1;
#X obj 533 38 inlet bpm;
#X obj 553 126 expr $f1 / 60000;
#X obj 554 492 outlet tempo;
#X obj 43 511 outlet bang;
#X floatatom 599 168 5 0 0 0 - - -;
#X obj 591 224 swap 1;
#X obj 583 326 /;
#X floatatom 607 367 5 0 0 0 - - -;
#X obj 261 348 f;
#X connect 0 0 8 0;
#X connect 0 0 13 0;
#X connect 3 0 2 0;
#X connect 3 0 6 0;
#X connect 4 0 1 0;
#X connect 4 0 3 0;
#X connect 4 0 18 0;
#X connect 5 0 0 0;
#X connect 8 0 9 0;
#X connect 8 0 7 0;
#X connect 9 0 8 1;
#X connect 10 0 11 0;
#X connect 10 0 6 0;
#X connect 11 0 14 0;
#X connect 11 0 15 0;
#X connect 15 0 16 0;
#X connect 15 1 16 1;
#X connect 16 0 17 0;
#X connect 16 0 18 0;
#X connect 18 0 0 1;
#X connect 18 0 12 0;
