#N canvas 0 22 450 300 10;
#X obj 38 37 inlet;
#X obj 39 248 outlet;
#X msg 38 76 1;
#X obj 82 77 delay 10;
#X msg 82 98 0;
#X text 181 21 btbp - bang to Buchla Pulse;
#X connect 0 0 2 0;
#X connect 0 0 3 0;
#X connect 2 0 1 0;
#X connect 3 0 4 0;
#X connect 4 0 1 0;
