#N canvas 0 22 559 379 10;
#X obj 206 25 inlet;
#X obj 48 112 osc~ 78;
#X obj 94 160 *~;
#X obj 157 225 *~;
#X obj 149 272 outlet~;
#X obj 293 138 vline~;
#X obj 122 92 osc~ 77;
#X msg 299 78 1 0 0 \, 0.25 100 0 \, 0 100 0;
#X obj 155 133 +~;
#X obj 198 93 osc~ 0.05;
#X connect 0 0 7 0;
#X connect 1 0 2 0;
#X connect 2 0 3 0;
#X connect 3 0 4 0;
#X connect 5 0 3 1;
#X connect 6 0 8 0;
#X connect 7 0 5 0;
#X connect 8 0 2 1;
#X connect 9 0 8 1;
