#N canvas 1023 429 1052 765 10;
#X obj 159 148 notein;
#X floatatom 65 248 5 0 0 0 - - -, f 5;
#X floatatom 249 213 5 0 0 0 - - -, f 5;
#X obj 221 265 / 127;
#X obj 118 261 / 127;
#X obj 179 316 > 1;
#X floatatom 187 352 5 0 0 0 - - -, f 5;
#X obj 118 282 - 0.5;
#X obj 118 303 * 2;
#X obj 136 422 dac~ 16 17 18;
#X text 108 450 pitch \, amplitude \, gate go to ES-3 outputs 6 \,
7 \, 8;
#X msg 247 341 \$1 20;
#X obj 247 362 line~;
#X text 289 360 smooth out abrupt changes in amplitude to avoid pops
;
#X floatatom 483 189 5 0 0 0 - - -, f 5;
#X obj 542 117 polytouchin;
#X floatatom 598 162 5 0 0 0 - - -, f 5;
#X obj 536 220 dac~ 15;
#X text 654 198 send aftertouch to ES-5 output 5;
#X msg 542 159 \$1 10;
#X obj 542 180 line~;
#X obj 542 138 / 127;
#X connect 0 0 1 0;
#X connect 0 0 4 0;
#X connect 0 1 2 0;
#X connect 0 1 3 0;
#X connect 0 1 5 0;
#X connect 3 0 11 0;
#X connect 4 0 7 0;
#X connect 5 0 6 0;
#X connect 5 0 9 1;
#X connect 7 0 8 0;
#X connect 8 0 9 0;
#X connect 11 0 12 0;
#X connect 12 0 9 2;
#X connect 15 0 21 0;
#X connect 15 1 16 0;
#X connect 19 0 20 0;
#X connect 20 0 17 0;
#X connect 21 0 19 0;
#X connect 21 0 14 0;
