#N canvas 636 89 618 579 10;
#X obj 216 35 inlet;
#X obj 167 235 *~;
#X obj 159 282 outlet~;
#X obj 303 148 vline~;
#X msg 309 88 1 0 0 \, 0.25 100 0 \, 0 750 0;
#X obj 45 44 osc~ 220;
#X obj 81 92 +~;
#X obj 117 39 osc~ 10;
#X obj 77 128 osc~ 500;
#X obj 123 193 *~;
#X obj 148 121 osc~ 60;
#X connect 0 0 4 0;
#X connect 1 0 2 0;
#X connect 3 0 1 1;
#X connect 4 0 3 0;
#X connect 5 0 6 0;
#X connect 6 0 8 0;
#X connect 7 0 6 1;
#X connect 8 0 9 0;
#X connect 9 0 1 0;
#X connect 10 0 9 1;
