#N canvas 86 45 811 572 10;
#X obj 204 44 inlet;
#X obj 286 109 f 0;
#X obj 354 109 + 1;
#X obj 244 188 hradio 15 1 0 32 empty empty empty 0 -8 0 10 -262144
-1 -1 13;
#X obj 295 141 mod 32;
#X obj 314 443 *~;
#X obj 280 500 outlet~;
#X obj 421 421 vline~;
#X msg 406 370 1 0 0 \, 0.7 200 0 \, 0 300 0;
#X obj 260 389 phasor~ 600;
#X obj 406 263 sel 0 6 16 17 18 22;
#X obj 187 247 osc~ 0.5;
#X obj 179 283 *~ 200;
#X obj 179 314 +~ 400;
#X connect 0 0 1 0;
#X connect 1 0 2 0;
#X connect 1 0 4 0;
#X connect 2 0 1 1;
#X connect 4 0 3 0;
#X connect 4 0 10 0;
#X connect 5 0 6 0;
#X connect 7 0 5 1;
#X connect 8 0 7 0;
#X connect 9 0 5 0;
#X connect 10 0 8 0;
#X connect 10 1 8 0;
#X connect 10 2 8 0;
#X connect 10 3 8 0;
#X connect 10 4 8 0;
#X connect 10 5 8 0;
#X connect 11 0 12 0;
#X connect 12 0 13 0;
#X connect 13 0 9 0;
