#N canvas 217 44 1006 588 10;
#X obj 339 142 masterclock;
#X obj 278 83 tgl 15 0 empty empty empty 17 7 0 10 -262144 -1 -1 1
1;
#X obj 302 220 bng 15 250 50 0 empty empty empty 17 7 0 10 -262144
-1 -1;
#X obj 405 55 hsl 128 15 3000 100 0 0 empty empty empty -2 -8 0 10
-262144 -1 -1 10600 1;
#X floatatom 404 84 5 0 0 0 - - -;
#X obj 372 515 dac~;
#X obj 329 451 *~;
#X obj 418 453 *~;
#X obj 521 424 hsl 128 15 0 0.99 0 0 empty empty empty -2 -8 0 10 -262144
-1 -1 400 1;
#X obj 358 345 osc~ 440;
#X connect 0 0 2 0;
#X connect 1 0 0 0;
#X connect 3 0 4 0;
#X connect 4 0 0 1;
#X connect 6 0 5 0;
#X connect 7 0 5 1;
#X connect 8 0 7 1;
#X connect 8 0 6 1;
#X connect 9 0 6 0;
#X connect 9 0 7 0;
