#N canvas 1179 211 833 698 12;
#X floatatom 72 89 5 0 0 0 - - - 0;
#X floatatom 209 92 5 0 0 0 - - - 0;
#N canvas 208 233 456 508 magnitude 1;
#X obj 45 34 inlet;
#X obj 221 40 inlet;
#X obj 156 341 outlet;
#X obj 45 87 *;
#X obj 45 58 t f f;
#X obj 221 98 *;
#X obj 221 69 t f f;
#X obj 169 186 +;
#X obj 215 132 t b f;
#X obj 164 266 sqrt;
#X connect 0 0 4 0;
#X connect 1 0 6 0;
#X connect 3 0 7 0;
#X connect 4 0 3 0;
#X connect 4 1 3 1;
#X connect 5 0 8 0;
#X connect 6 0 5 0;
#X connect 6 1 5 1;
#X connect 7 0 9 0;
#X connect 8 0 7 0;
#X connect 8 1 7 1;
#X connect 9 0 2 0;
#X restore 84 151 pd magnitude;
#X floatatom 84 175 5 0 0 0 - - - 0;
#X connect 0 0 2 0;
#X connect 1 0 2 1;
#X connect 2 0 3 0;
