#N canvas 1052 138 628 543 10;
#X obj 18 72 inlet trig;
#X obj 309 369 outlet~;
#X obj 227 98 inlet;
#X obj 318 98 inlet;
#X obj 423 99 inlet;
#X text 17 43 Send 1 to start attack \, 0 to release;
#X text 223 68 Attack Level;
#X text 313 65 Attack Speed;
#X text 421 66 Decay Speed;
#X obj 503 139 inlet;
#X text 498 115 Sustain %;
#X obj 18 93 sel 0;
#X msg 19 129 stop;
#X obj 320 164 del \$2;
#X obj 321 211 f \$4;
#X obj 321 232 * 0.01;
#X obj 321 253 * \$1;
#X obj 321 274 pack 0 \$3;
#X obj 311 326 line~;
#X obj 467 275 pack 0 \$5;
#X obj 565 234 inlet;
#X text 564 204 Release Speed;
#X obj 137 125 t b;
#X obj 144 197 f \$1;
#X obj 173 268 pack 0 \$2;
#X text 14 4 Takes 5 aruments: attack level \, attack speed \, decay
speed \, sustain % \, release speed;
#X connect 0 0 11 0;
#X connect 2 0 23 1;
#X connect 4 0 17 1;
#X connect 9 0 14 0;
#X connect 11 0 12 0;
#X connect 11 0 19 0;
#X connect 11 1 22 0;
#X connect 12 0 13 0;
#X connect 13 0 14 0;
#X connect 14 0 15 0;
#X connect 15 0 16 0;
#X connect 16 0 17 0;
#X connect 17 0 18 0;
#X connect 18 0 1 0;
#X connect 19 0 18 0;
#X connect 20 0 19 1;
#X connect 22 0 23 0;
#X connect 22 0 13 0;
#X connect 23 0 24 0;
#X connect 24 0 18 0;
