#N canvas 78 60 450 300 12;
#X obj 67 11 inlet;
#X obj 68 56 f;
#X obj 69 172 outlet;
#X obj 118 58 + 1;
#X obj 69 103 mod 16;
#X floatatom 213 63 5 0 0 0 - - -;
#X obj 211 3 loadbang;
#X obj 212 34 f \$1;
#X obj 69 137 + 1;
#X connect 0 0 1 0;
#X connect 0 0 5 0;
#X connect 1 0 3 0;
#X connect 1 0 4 0;
#X connect 3 0 1 1;
#X connect 4 0 8 0;
#X connect 5 0 4 1;
#X connect 6 0 7 0;
#X connect 7 0 5 0;
#X connect 8 0 2 0;
