#N canvas 0 22 670 540 12;
#X obj 66 40 inlet bang;
#X msg 69 257 1;
#X obj 138 242 delay 15;
#X msg 138 271 0;
#X obj 77 522 outlet;
#X obj 76 470 *;
#X obj 309 9 loadbang;
#X obj 279 334 f;
#X obj 279 260 f \$2;
#X text 328 259 scaling for output;
#X obj 191 130 f \$1;
#X obj 279 292 max 10;
#X obj 191 165 max 15;
#X text 236 128 duration;
#X connect 0 0 1 0;
#X connect 0 0 2 0;
#X connect 1 0 5 0;
#X connect 2 0 3 0;
#X connect 3 0 5 0;
#X connect 5 0 4 0;
#X connect 6 0 8 0;
#X connect 6 0 10 0;
#X connect 7 0 5 1;
#X connect 8 0 11 0;
#X connect 10 0 12 0;
#X connect 11 0 7 0;
#X connect 12 0 2 1;
