#N canvas 47 72 1516 917 10;
#X obj 649 184 delay;
#X floatatom 689 143 5 0 0 0 - - -;
#X obj 655 243 delay;
#X obj 594 323 t b;
#X obj 581 407 bng 15 250 50 0 empty empty empty 17 7 0 10 -262144
-1 -1;
#X floatatom 700 209 5 0 0 0 - - -;
#X obj 655 306 delay;
#X floatatom 704 277 5 0 0 0 - - -;
#X obj 657 377 delay;
#X floatatom 706 348 5 0 0 0 - - -;
#X obj 564 84 tgl 15 0 empty empty empty 17 7 0 10 -262144 -1 -1 0
1;
#X obj 543 136 spigot;
#X obj 514 107 bng 15 250 50 0 empty empty empty 17 7 0 10 -262144
-1 -1;
#X obj 112 197 delay;
#X floatatom 111 147 5 0 0 0 - - -;
#X obj 268 222 tgl 15 0 empty empty empty 17 7 0 10 -262144 -1 -1 0
1;
#X obj 247 274 spigot;
#X obj 218 245 bng 15 250 50 0 empty empty empty 17 7 0 10 -262144
-1 -1;
#X obj 260 403 t b;
#X obj 221 521 bng 15 250 50 0 empty empty empty 17 7 0 10 -262144
-1 -1;
#X obj 300 440 f;
#X obj 356 440 + 1;
#X obj 502 763 dac~;
#X obj 505 611 noise~;
#X obj 506 660 vcf~;
#X obj 504 723 *~;
#X obj 589 657 vline~;
#X obj 802 127 * 1.5;
#X obj 859 194 * 0.5;
#X msg 760 57 250;
#X obj 403 444 mod 4;
#X obj 299 520 sel 0 1 2 3;
#X msg 295 570 1;
#X msg 336 572 1.5;
#X msg 370 576 0.5;
#X msg 413 575 1;
#X floatatom 129 89 5 0 0 0 - - -;
#X obj 93 121 *;
#X obj 325 621 s mult;
#X obj 70 88 r mult;
#X obj 591 541 r snap;
#X obj 215 569 s snap;
#X msg 590 586 1 0 \, 0.4 22 5 \, 0 44 75;
#X obj 124 12 loadbang;
#X msg 127 44 350;
#X obj 212 60 hsl 128 15 0 1000 0 0 empty empty empty -2 -8 0 10 -262144
-1 -1 4445 1;
#X obj 1112 648 delay;
#X obj 1080 690 bng 15 250 50 0 empty empty empty 17 7 0 10 -262144
-1 -1;
#X obj 1190 309 t b;
#X obj 1230 346 f;
#X obj 1286 346 + 1;
#X obj 1333 350 mod 4;
#X obj 1229 426 sel 0 1 2 3;
#X msg 1225 476 1;
#X msg 1266 478 1.5;
#X msg 1300 482 0.5;
#X msg 1343 481 1;
#X obj 1255 527 s mult;
#X obj 1129 732 s snap;
#X obj 1151 580 r mult;
#X obj 1145 105 tgl 15 0 empty empty empty 17 7 0 10 -262144 -1 -1
0 1;
#X obj 1138 152 metro;
#X obj 1183 112 hsl 128 15 0 1000 0 0 empty empty empty -2 -8 0 10
-262144 -1 -1 2400 1;
#X msg 1186 69 350;
#X floatatom 1123 613 5 0 0 0 - - -;
#X obj 1170 616 *;
#X floatatom 1207 591 5 0 0 0 - - -;
#X connect 0 0 3 0;
#X connect 0 0 2 0;
#X connect 1 0 0 1;
#X connect 2 0 3 0;
#X connect 2 0 6 0;
#X connect 3 0 4 0;
#X connect 5 0 2 1;
#X connect 6 0 8 0;
#X connect 6 0 3 0;
#X connect 7 0 6 1;
#X connect 8 0 3 0;
#X connect 8 0 11 0;
#X connect 9 0 8 1;
#X connect 10 0 11 1;
#X connect 11 0 0 0;
#X connect 12 0 11 0;
#X connect 13 0 17 0;
#X connect 14 0 13 1;
#X connect 15 0 16 1;
#X connect 16 0 13 0;
#X connect 16 0 18 0;
#X connect 17 0 16 0;
#X connect 18 0 19 0;
#X connect 18 0 20 0;
#X connect 19 0 41 0;
#X connect 20 0 21 0;
#X connect 20 0 31 0;
#X connect 21 0 30 0;
#X connect 23 0 24 0;
#X connect 24 0 25 0;
#X connect 25 0 22 0;
#X connect 25 0 22 1;
#X connect 26 0 25 1;
#X connect 27 0 5 0;
#X connect 28 0 7 0;
#X connect 29 0 1 0;
#X connect 29 0 9 0;
#X connect 29 0 27 0;
#X connect 29 0 28 0;
#X connect 30 0 20 1;
#X connect 31 0 32 0;
#X connect 31 1 33 0;
#X connect 31 2 34 0;
#X connect 31 3 35 0;
#X connect 32 0 38 0;
#X connect 33 0 38 0;
#X connect 34 0 38 0;
#X connect 35 0 38 0;
#X connect 36 0 37 1;
#X connect 37 0 14 0;
#X connect 39 0 37 0;
#X connect 40 0 42 0;
#X connect 42 0 26 0;
#X connect 43 0 44 0;
#X connect 44 0 45 0;
#X connect 45 0 36 0;
#X connect 46 0 47 0;
#X connect 46 0 58 0;
#X connect 48 0 49 0;
#X connect 48 0 46 0;
#X connect 49 0 50 0;
#X connect 49 0 52 0;
#X connect 50 0 51 0;
#X connect 51 0 49 1;
#X connect 52 0 53 0;
#X connect 52 1 54 0;
#X connect 52 2 55 0;
#X connect 52 3 56 0;
#X connect 53 0 57 0;
#X connect 54 0 57 0;
#X connect 55 0 57 0;
#X connect 56 0 57 0;
#X connect 59 0 64 0;
#X connect 59 0 65 0;
#X connect 60 0 61 0;
#X connect 61 0 48 0;
#X connect 62 0 61 1;
#X connect 63 0 62 0;
#X connect 65 0 46 1;
#X connect 66 0 65 1;
