#N canvas 899 209 1530 1086 10;
#X obj 65 51 threshold~ 0.5 0 0.5 0;
#X obj 65 28 phasor~ 5000;
#X obj 65 72 f;
#X obj 113 72 + 1;
#X obj 65 93 % 2056;
#X obj 65 114 s rawclock;
#X obj 286 884 dac~;
#N canvas 486 29 1004 698 verb 1;
#X obj 162 77 inlet~;
#X obj 3 259 outlet~;
#X obj 80 257 outlet~;
#X obj 164 131 +~;
#X obj 227 132 +~;
#X obj 227 75 inlet~;
#X obj 168 239 +~;
#X obj 169 314 +~;
#X obj 235 235 -~;
#X obj 239 311 +~;
#X obj 404 244 +~;
#X obj 539 290 -~;
#X obj 393 312 -~;
#X obj 524 331 -~;
#X obj 524 399 delwrite~ \$0-d4 3026;
#X obj 393 398 delwrite~ \$0-d3 2056;
#X obj 244 488 delwrite~ \$0-d2 2056;
#X obj 176 523 delwrite~ \$0-d1 2056;
#X obj 524 361 *~ 0.4;
#X obj 344 56 delread~ \$0-d1 5;
#X obj 243 448 *~ 0.3;
#X obj 175 455 *~ 0.4;
#X obj 393 360 *~ 0.4;
#X obj 421 142 delread~ \$0-d3 300;
#X obj 513 181 delread~ \$0-d4 89;
#X obj 363 90 delread~ \$0-d2 1000;
#X connect 0 0 3 0;
#X connect 3 0 1 0;
#X connect 3 0 6 0;
#X connect 3 0 8 0;
#X connect 4 0 2 0;
#X connect 4 0 8 1;
#X connect 4 0 6 1;
#X connect 5 0 4 0;
#X connect 6 0 7 0;
#X connect 6 0 12 0;
#X connect 7 0 21 0;
#X connect 8 0 9 0;
#X connect 8 0 13 0;
#X connect 9 0 20 0;
#X connect 10 0 7 1;
#X connect 10 0 12 1;
#X connect 11 0 13 1;
#X connect 11 0 9 1;
#X connect 12 0 22 0;
#X connect 13 0 18 0;
#X connect 18 0 14 0;
#X connect 19 0 3 1;
#X connect 20 0 16 0;
#X connect 21 0 17 0;
#X connect 22 0 15 0;
#X connect 23 0 10 0;
#X connect 23 0 11 0;
#X connect 24 0 10 1;
#X connect 24 0 11 1;
#X connect 25 0 4 1;
#X restore 309 718 pd verb;
#X obj 245 839 +~;
#X obj 367 840 +~;
#X obj 277 768 *~ 0.4;
#X obj 371 770 *~ 0.4;
#X obj 88 196 noise~;
#X obj 124 293 bob~;
#X floatatom 136 261 5 0 0 0 - - -, f 5;
#X floatatom 198 263 5 0 0 0 - - -, f 5;
#X obj 203 219 snapshot~;
#X obj 211 124 bng 15 250 50 0 empty empty empty 17 7 0 10 -262144
-1 -1;
#X obj 203 198 vline~;
#X obj 4 72 s rawbang;
#X obj 143 178 r rawbang;
#X floatatom 128 335 5 0 0 0 - - -, f 5;
#X obj 257 26 r rawclock;
#X obj 257 74 %;
#X obj 257 95 sel 0;
#X floatatom 336 41 5 0 0 0 - - -, f 5;
#X msg 381 11 75;
#X obj 387 86 sel 0;
#X obj 391 61 tgl 15 0 empty empty empty 17 7 0 10 -262144 -1 -1 1
1;
#X msg 427 11 300;
#X obj 96 357 *~ 2.4;
#X obj 96 397 mwn/clip~;
#X msg 211 166 120 0 \, 50 30 0 \, 0 90 0;
#X obj 544 186 r rawclock;
#X obj 544 290 %;
#X msg 636 186 2;
#X obj 636 217 pow;
#X obj 570 412 snapshot~;
#X obj 568 381 vline~;
#X obj 644 384 r rawbang;
#X obj 544 311 sel 0;
#X obj 473 347 noise~;
#X obj 503 466 *~;
#X floatatom 673 256 5 0 0 0 - - -, f 5;
#X obj 677 151 random 6;
#X obj 677 172 + 4;
#X floatatom 497 376 5 0 0 0 - - -, f 5;
#X obj 473 413 bp~ 4000 7;
#X obj 570 433 * 5100;
#X msg 576 349 1 0 \, 0 100 0;
#X obj 857 107 r rawclock;
#X obj 857 184 sel 0;
#X obj 868 469 phasor~;
#X obj 868 490 *~ 0.3;
#X obj 869 535 +~;
#X obj 935 472 phasor~;
#X obj 935 493 *~ 0.3;
#X obj 1030 469 phasor~;
#X obj 1030 490 *~ 0.3;
#X obj 861 629 *~;
#X obj 901 405 * 2;
#X obj 945 411 * 4;
#X floatatom 876 367 5 0 0 0 - - -, f 5;
#X obj 1039 586 vline~;
#X msg 834 304 110;
#X obj 857 205 f;
#X obj 905 207 + 1;
#X obj 857 226 % 4;
#X obj 741 540 snapshot~;
#X obj 664 512 r rawbang;
#X obj 740 446 *~;
#X obj 741 477 osc~;
#X obj 735 391 osc~ 0.3;
#X obj 793 390 osc~ 0.5;
#X obj 735 412 *~ 2;
#X obj 793 411 *~ 1.5;
#X obj 741 498 *~ 400;
#X obj 862 584 bp~ 500 15;
#X obj 857 247 sel 0 1 2 3;
#X msg 868 307 140;
#X msg 907 293 300;
#X msg 1047 554 1 110 \, 0 1000 500;
#X msg 957 288 50;
#X obj 96 431 *~ 0.3;
#X obj 495 518 *~ 0.4;
#X obj 741 519 +~ 1500;
#X obj 857 163 % 750;
#X msg 971 131 75;
#X floatatom 978 171 5 0 0 0 - - -, f 5;
#X obj 975 97 sel 0;
#X msg 1013 136 15;
#X obj 974 30 random 16;
#X obj 796 657 *~ 0.5;
#X obj 1110 900 +~;
#X obj 1087 763 osc~ 220;
#X obj 1111 828 +~;
#X floatatom 1217 789 5 0 0 0 - - -, f 5;
#X obj 1111 851 osc~;
#X obj 1109 796 *~ 1;
#X floatatom 1154 773 5 0 0 0 - - -, f 5;
#X floatatom 1132 716 5 0 0 0 - - -, f 5;
#X obj 1104 949 *~ 0.05;
#X obj 1168 659 line;
#X msg 1250 608 901 500;
#X obj 1269 731 line;
#X msg 1280 671 107 950;
#X msg 1339 673 216 860;
#X obj 1252 414 random 2;
#X obj 1253 456 sel 0 1;
#X obj 1240 257 r rawclock;
#X obj 1240 278 f;
#X obj 1293 283 + 1;
#X obj 1240 320 sel 0;
#X obj 1240 299 % 1024;
#X msg 1168 610 456 512;
#X obj 108 715 gnarlyverb 12 330 240 125;
#X connect 0 0 2 0;
#X connect 0 0 19 0;
#X connect 1 0 0 0;
#X connect 2 0 4 0;
#X connect 3 0 2 1;
#X connect 4 0 3 0;
#X connect 4 0 5 0;
#X connect 7 0 10 0;
#X connect 7 1 11 0;
#X connect 8 0 6 0;
#X connect 9 0 6 1;
#X connect 10 0 8 0;
#X connect 11 0 9 0;
#X connect 12 0 13 0;
#X connect 13 0 30 0;
#X connect 14 0 13 1;
#X connect 15 0 13 2;
#X connect 16 0 14 0;
#X connect 17 0 32 0;
#X connect 18 0 16 0;
#X connect 20 0 16 0;
#X connect 21 0 30 1;
#X connect 22 0 23 0;
#X connect 23 0 24 0;
#X connect 24 0 17 0;
#X connect 24 0 28 0;
#X connect 25 0 23 1;
#X connect 26 0 25 0;
#X connect 27 0 26 0;
#X connect 27 1 29 0;
#X connect 28 0 27 0;
#X connect 29 0 25 0;
#X connect 30 0 31 0;
#X connect 31 0 83 0;
#X connect 32 0 18 0;
#X connect 33 0 34 0;
#X connect 34 0 40 0;
#X connect 35 0 36 0;
#X connect 36 0 34 1;
#X connect 36 0 43 0;
#X connect 37 0 48 0;
#X connect 38 0 37 0;
#X connect 38 0 42 1;
#X connect 39 0 37 0;
#X connect 40 0 49 0;
#X connect 40 0 35 0;
#X connect 40 0 44 0;
#X connect 41 0 47 0;
#X connect 42 0 84 0;
#X connect 44 0 45 0;
#X connect 45 0 36 1;
#X connect 46 0 47 1;
#X connect 47 0 42 0;
#X connect 49 0 38 0;
#X connect 50 0 86 0;
#X connect 51 0 65 0;
#X connect 51 0 91 0;
#X connect 52 0 53 0;
#X connect 53 0 54 0;
#X connect 54 0 77 0;
#X connect 55 0 56 0;
#X connect 56 0 54 0;
#X connect 57 0 58 0;
#X connect 58 0 54 0;
#X connect 59 0 92 0;
#X connect 60 0 55 0;
#X connect 61 0 57 0;
#X connect 62 0 60 0;
#X connect 62 0 61 0;
#X connect 62 0 52 0;
#X connect 63 0 59 1;
#X connect 64 0 62 0;
#X connect 65 0 66 0;
#X connect 65 0 67 0;
#X connect 66 0 65 1;
#X connect 67 0 78 0;
#X connect 67 0 81 0;
#X connect 68 0 77 1;
#X connect 69 0 68 0;
#X connect 70 0 71 0;
#X connect 71 0 76 0;
#X connect 72 0 74 0;
#X connect 73 0 75 0;
#X connect 74 0 70 0;
#X connect 75 0 70 1;
#X connect 76 0 85 0;
#X connect 77 0 59 0;
#X connect 78 0 64 0;
#X connect 78 1 79 0;
#X connect 78 2 80 0;
#X connect 78 3 82 0;
#X connect 79 0 62 0;
#X connect 80 0 62 0;
#X connect 81 0 63 0;
#X connect 82 0 62 0;
#X connect 83 0 7 0;
#X connect 84 0 7 1;
#X connect 85 0 68 0;
#X connect 86 0 51 0;
#X connect 87 0 88 0;
#X connect 88 0 86 1;
#X connect 89 0 90 0;
#X connect 89 1 87 0;
#X connect 90 0 88 0;
#X connect 91 0 89 0;
#X connect 92 0 7 1;
#X connect 92 0 7 0;
#X connect 93 0 101 0;
#X connect 94 0 98 0;
#X connect 95 0 97 0;
#X connect 96 0 95 1;
#X connect 97 0 93 0;
#X connect 98 0 95 0;
#X connect 99 0 98 1;
#X connect 100 0 94 0;
#X connect 101 0 115 1;
#X connect 101 0 115 0;
#X connect 102 0 100 0;
#X connect 103 0 102 0;
#X connect 104 0 96 0;
#X connect 105 0 104 0;
#X connect 106 0 104 0;
#X connect 107 0 108 0;
#X connect 108 0 114 0;
#X connect 108 0 105 0;
#X connect 108 1 103 0;
#X connect 108 1 106 0;
#X connect 109 0 110 0;
#X connect 110 0 111 0;
#X connect 110 0 113 0;
#X connect 111 0 110 1;
#X connect 112 0 107 0;
#X connect 113 0 112 0;
#X connect 114 0 102 0;
#X connect 115 0 8 1;
#X connect 115 1 9 1;
