#N canvas 723 131 1065 667 10;
#X obj 104 210 dac~ 11 12 13 14 15 16 17 18;
#X obj 109 60 osc~ 0.5;
#X obj 487 70 adc~ 9 10 11 12 13 14 15 16;
#X obj 339 439 midiin;
#X obj 333 488 midiout;
#X text 108 232 ES-3 outputs;
#X text 374 316 Scarlett outputs;
#X text 494 91 ES-6 inputs;
#X obj 809 20 osc~ 0.75;
#X obj 809 41 *~ 1023;
#X obj 285 97 osc~ 110;
#X obj 365 151 *~;
#X floatatom 389 113 5 0 0 0 - - -, f 5;
#X obj 381 13 loadbang;
#X obj 381 34 0.25;
#X obj 368 289 dac~ 3 4 5 6 7 8;
#X obj 517 208 mwnobj1~;
#X connect 1 0 0 0;
#X connect 3 0 4 0;
#X connect 3 1 4 1;
#X connect 8 0 9 0;
#X connect 10 0 11 0;
#X connect 12 0 11 1;
#X connect 13 0 14 0;
#X connect 14 0 12 0;
#X connect 16 0 15 2;
