#N canvas 557 50 1716 888 10;
#X obj 112 27 es6-setup;
#X obj 329 524 dac~ 1 2;
#X obj 112 200 panknob;
#X obj 212 203 panknob;
#X obj 303 201 panknob;
#X obj 391 204 panknob;
#X obj 481 205 panknob;
#X obj 568 208 panknob;
#X obj 688 24 ScarlettAnalogChannels;
#X obj 915 541 dac~ 1 2;
#X obj 698 217 panknob;
#X obj 798 220 panknob;
#X obj 889 218 panknob;
#X obj 977 221 panknob;
#X obj 1067 222 panknob;
#X obj 1154 225 panknob;
#X obj 1230 224 panknob;
#X obj 1317 227 panknob;
#X obj 1507 300 delwrite~ d1 44100;
#X obj 1362 603 dac~ 1 2;
#X obj 1336 530 delread4~ d1;
#X obj 1336 551 *~ 0.8;
#X obj 1488 524 delread4~ d1;
#X obj 1488 545 *~ 0.8;
#X obj 1483 441 *~ 22000;
#X obj 1554 141 delread4~ d1;
#X obj 1261 414 osc~ 0.01;
#X obj 1261 435 +~ 1;
#X obj 1261 456 *~ 11000;
#X obj 1483 420 phasor~ 0.01;
#X obj 1554 56 metro 500;
#X obj 1553 33 tgl 15 0 empty empty empty 17 7 0 10 -262144 -1 -1 1
1;
#X obj 1554 162 lop~ 12000;
#X obj 1550 6 loadbang;
#X obj 1554 118 line~;
#X obj 1554 77 random 22000;
#X msg 1554 98 \$1 250;
#X obj 1554 183 *~ 0.9;
#X connect 0 0 2 0;
#X connect 0 1 3 0;
#X connect 0 2 4 0;
#X connect 0 3 5 0;
#X connect 0 4 6 0;
#X connect 0 5 7 0;
#X connect 2 0 1 0;
#X connect 2 1 1 1;
#X connect 3 0 1 0;
#X connect 3 1 1 1;
#X connect 4 0 1 0;
#X connect 4 1 1 1;
#X connect 5 0 1 0;
#X connect 5 1 1 1;
#X connect 6 0 1 0;
#X connect 6 1 1 1;
#X connect 7 0 1 0;
#X connect 7 1 1 1;
#X connect 8 0 10 0;
#X connect 8 1 11 0;
#X connect 8 2 12 0;
#X connect 8 3 13 0;
#X connect 8 4 14 0;
#X connect 8 5 15 0;
#X connect 8 6 16 0;
#X connect 8 7 17 0;
#X connect 8 7 18 0;
#X connect 10 0 9 0;
#X connect 10 1 9 1;
#X connect 11 0 9 0;
#X connect 11 1 9 1;
#X connect 12 0 9 0;
#X connect 12 1 9 1;
#X connect 13 0 9 0;
#X connect 13 1 9 1;
#X connect 14 0 9 0;
#X connect 14 1 9 1;
#X connect 15 0 9 0;
#X connect 15 1 9 1;
#X connect 16 0 9 0;
#X connect 16 1 9 1;
#X connect 17 0 9 0;
#X connect 17 1 9 1;
#X connect 20 0 21 0;
#X connect 21 0 19 0;
#X connect 22 0 23 0;
#X connect 23 0 19 1;
#X connect 24 0 22 0;
#X connect 25 0 32 0;
#X connect 26 0 27 0;
#X connect 27 0 28 0;
#X connect 28 0 20 0;
#X connect 29 0 24 0;
#X connect 30 0 35 0;
#X connect 31 0 30 0;
#X connect 32 0 37 0;
#X connect 33 0 31 0;
#X connect 34 0 25 0;
#X connect 35 0 36 0;
#X connect 36 0 34 0;
#X connect 37 0 18 0;
