#N canvas 428 355 827 652 10;
#X obj 195 484 esx8cvencoder~;
#X obj 255 538 es4encoder~;
#X obj 268 573 dac~ 9 10;
#X obj 323 96 midirealtimein;
#X obj 324 136 sel 248 250 251 252;
#X obj 296 485 esx8cvencoder~;
#X obj 225 172 f;
#X obj 258 172 + 1;
#X floatatom 176 208 5 0 0 0 - - -, f 5;
#X obj 401 243 tgl 15 0 empty empty empty 17 7 0 10 -262144 -1 -1 2047
1;
#X msg 432 206 0;
#X text 461 128 248: clock tick 250: start 251: continue 252: stop
;
#X msg 346 205 0;
#X obj 226 200 % 24;
#X obj 226 221 sel 0;
#X msg 135 61 24;
#X msg 230 277 1;
#X obj 275 277 del 33;
#X msg 275 299 0;
#X obj 261 328 +;
#X obj 287 398 * 2047;
#X msg 175 61 12;
#X msg 215 62 6;
#X text 127 17 Midi clock is 24ppqn (pulses per quarter note) \, so
sending eveery 24th pulse will give a pulse on every quarter note.
Use 12 for eigth notes \, 6 for sixteenth notes \, etc.;
#X text 11 166 This is a counter of pulses since the clock was reset
(with a midi clock start message);
#X text 62 285 Turn a bang into a trigger;
#X text 70 397 Scale the trigger for the ESX8CV;
#X msg 398 206 1;
#X obj 374 395 * 2047;
#X text 428 394 Scale the on/off message for the ESX-8CV;
#X text 486 214 Midi stop will send zero to turn off the ESX-8CV. Start
or continue will send 1 to turn it on \, and start will also reset
the counter.;
#X connect 0 0 1 0;
#X connect 1 0 2 0;
#X connect 1 1 2 1;
#X connect 3 0 4 0;
#X connect 4 0 6 0;
#X connect 4 1 27 0;
#X connect 4 1 12 0;
#X connect 4 2 27 0;
#X connect 4 3 10 0;
#X connect 5 0 1 1;
#X connect 6 0 7 0;
#X connect 6 0 8 0;
#X connect 6 0 13 0;
#X connect 7 0 6 1;
#X connect 9 0 28 0;
#X connect 10 0 9 0;
#X connect 12 0 6 1;
#X connect 13 0 14 0;
#X connect 14 0 16 0;
#X connect 14 0 17 0;
#X connect 15 0 13 1;
#X connect 16 0 19 0;
#X connect 17 0 18 0;
#X connect 18 0 19 0;
#X connect 19 0 20 0;
#X connect 20 0 5 0;
#X connect 21 0 13 1;
#X connect 22 0 13 1;
#X connect 27 0 9 0;
#X connect 28 0 5 1;
