#N canvas 706 105 1467 1081 10;
#X obj 625 831 dac~;
#X obj 480 68 adc~ 11 12 13 14 15 16;
#X obj 974 342 midiout;
#X obj 967 25 tgl 15 0 empty empty empty 17 7 0 10 -262144 -1 -1 1
1;
#X obj 967 166 makenote;
#X obj 967 213 noteout;
#X obj 967 45 metro 500;
#X obj 966 85 random 12;
#X obj 966 106 + 36;
#X obj 1064 86 random 127;
#X obj 1162 88 random 250;
#X obj 412 112 vsl 15 128 0 1 0 0 empty empty empty 0 -9 0 10 -262144
-1 -1 12700 1;
#X obj 360 117 vu 15 120 empty empty -1 -8 0 10 -66577 -1 1 0;
#X obj 397 258 *~;
#X obj 608 736 +~;
#X obj 651 734 +~;
#X obj 332 253 env~;
#X obj 332 274 - 100;
#X obj 560 121 vsl 15 128 0 1 0 0 empty empty empty 0 -9 0 10 -262144
-1 -1 12700 1;
#X obj 508 126 vu 15 120 empty empty -1 -8 0 10 -66577 -1 1 0;
#X obj 545 267 *~;
#X obj 480 262 env~;
#X obj 480 283 - 100;
#X connect 1 0 13 0;
#X connect 1 1 20 0;
#X connect 3 0 6 0;
#X connect 4 0 5 0;
#X connect 4 1 5 1;
#X connect 6 0 7 0;
#X connect 6 0 9 0;
#X connect 6 0 10 0;
#X connect 7 0 8 0;
#X connect 8 0 4 0;
#X connect 9 0 4 1;
#X connect 10 0 4 2;
#X connect 11 0 13 1;
#X connect 13 0 14 0;
#X connect 13 0 16 0;
#X connect 14 0 0 0;
#X connect 15 0 0 1;
#X connect 16 0 17 0;
#X connect 17 0 12 0;
#X connect 18 0 20 1;
#X connect 20 0 21 0;
#X connect 20 0 15 0;
#X connect 21 0 22 0;
#X connect 22 0 19 0;
