#N canvas 540 61 936 739 10;
#X obj 350 543 esx8cvencoder~;
#X obj 377 586 es4encoder~;
#X obj 146 312 -~ 0.5;
#X obj 146 333 *~ 2048;
#X obj 390 621 dac~ 9 10;
#X obj 460 538 esx8cvencoder~;
#X obj 146 284 osc~;
#X obj 143 203 +~ 1;
#X obj 143 176 *~ 10;
#X obj 143 151 phasor~ 0.5;
#X obj 134 106 +~ 0;
#X obj 134 85 *~ 0.25;
#X obj 293 101 threshold~ 0.01 0 0.99 0;
#X obj 292 145 bng 15 250 50 0 empty empty empty 17 7 0 10 -262144
-1 -1;
#X obj 379 258 mwn.btbp;
#X obj 379 279 * 2048;
#X obj 134 50 phasor~ 1.25;
#X obj 345 203 spigot;
#X obj 386 176 tgl 15 0 empty empty empty 17 7 0 10 -262144 -1 -1 1
1;
#X connect 0 0 1 0;
#X connect 1 0 4 0;
#X connect 1 1 4 1;
#X connect 2 0 3 0;
#X connect 3 0 5 1;
#X connect 5 0 1 1;
#X connect 6 0 2 0;
#X connect 7 0 6 0;
#X connect 8 0 7 0;
#X connect 9 0 8 0;
#X connect 10 0 9 0;
#X connect 11 0 10 0;
#X connect 12 0 13 0;
#X connect 13 0 17 0;
#X connect 14 0 15 0;
#X connect 15 0 5 7;
#X connect 16 0 11 0;
#X connect 16 0 12 0;
#X connect 17 0 14 0;
#X connect 18 0 17 1;
