#N canvas 720 107 868 663 10;
#X obj 50 46 es6-setup;
#X obj 119 504 dac~ 1 2;
#X text 186 21 ES-6 Intellijel case;
#N canvas 0 555 986 677 dlyx 1;
#X obj 166 222 *~ 0.8;
#X obj 373 269 +~;
#X floatatom 149 174 5 0 0 0 - - -, f 5;
#X obj 242 75 hip~ 800;
#X obj 85 86 env~;
#X obj 85 63 hip~ 1800;
#X obj 49 171 bng 15 250 50 0 empty empty empty 17 7 0 10 -262144 -1
-1;
#X obj 83 135 f;
#X obj 85 107 threshold~ 60 5 50 5;
#X obj 83 156 + 33;
#X obj 83 177 % 300;
#X obj 83 198 + 80;
#X obj 176 146 line~;
#X msg 216 132 \$1 200;
#X obj 80 6 inlet~;
#X obj 88 298 outlet~;
#X obj 289 160 delwrite~ \$0-d1 25000;
#X obj 592 227 *~ 0.8;
#X obj 799 274 +~;
#X floatatom 575 179 5 0 0 0 - - -, f 5;
#X obj 668 80 hip~ 800;
#X obj 511 91 env~;
#X obj 511 68 hip~ 1800;
#X obj 475 176 bng 15 250 50 0 empty empty empty 17 7 0 10 -262144
-1 -1;
#X obj 509 140 f;
#X obj 511 112 threshold~ 60 5 50 5;
#X obj 509 182 % 300;
#X obj 509 203 + 80;
#X obj 602 151 line~;
#X msg 642 137 \$1 200;
#X obj 506 11 inlet~;
#X obj 514 303 outlet~;
#X obj 715 165 delwrite~ \$0-d2 25000;
#X obj 592 206 delread4~ \$0-d2;
#X obj 166 201 delread4~ \$0-d1;
#X obj 509 161 + 66;
#X connect 0 0 1 0;
#X connect 1 0 16 0;
#X connect 2 0 34 0;
#X connect 3 0 16 0;
#X connect 4 0 8 0;
#X connect 5 0 4 0;
#X connect 7 0 2 0;
#X connect 7 0 9 0;
#X connect 8 0 6 0;
#X connect 8 0 7 0;
#X connect 9 0 10 0;
#X connect 10 0 7 1;
#X connect 10 0 11 0;
#X connect 11 0 13 0;
#X connect 12 0 34 0;
#X connect 13 0 12 0;
#X connect 14 0 5 0;
#X connect 14 0 3 0;
#X connect 17 0 18 0;
#X connect 18 0 32 0;
#X connect 19 0 33 0;
#X connect 20 0 32 0;
#X connect 21 0 25 0;
#X connect 22 0 21 0;
#X connect 24 0 19 0;
#X connect 24 0 35 0;
#X connect 25 0 23 0;
#X connect 25 0 24 0;
#X connect 26 0 24 1;
#X connect 26 0 27 0;
#X connect 27 0 29 0;
#X connect 28 0 33 0;
#X connect 29 0 28 0;
#X connect 30 0 22 0;
#X connect 30 0 20 0;
#X connect 33 0 17 0;
#X connect 33 0 31 0;
#X connect 34 0 0 0;
#X connect 34 0 15 0;
#X connect 35 0 26 0;
#X restore 480 339 pd dlyx;
#X obj 190 439 +~;
#X obj 322 443 +~;
#X obj 345 315 *~ 0.4;
#X obj 462 389 *~ 0.4;
#X obj 534 395 *~ 0.4;
#X obj 267 319 *~ 0.4;
#X connect 0 4 3 0;
#X connect 0 4 9 0;
#X connect 0 5 3 1;
#X connect 0 5 6 0;
#X connect 3 0 7 0;
#X connect 3 1 8 0;
#X connect 4 0 1 0;
#X connect 5 0 1 1;
#X connect 6 0 5 0;
#X connect 7 0 4 0;
#X connect 8 0 5 0;
#X connect 9 0 4 0;
