#N canvas 255 75 1334 899 12;
#X obj 45 855 dac~;
#X floatatom 130 730 5 0 1 0 - - -;
#X obj 839 185 vline~;
#X obj 867 231 *~;
#X floatatom 703 210 5 0 0 0 - - -;
#X obj 810 365 *~;
#X obj 813 228 *~;
#X obj 838 276 *~;
#X obj 731 496 delread4~ \$0-fb1;
#X obj 746 433 delwrite~ \$0-fb1 1000;
#X floatatom 646 460 5 0 0 0 - - -;
#X floatatom 698 546 5 0 0 0 - - -;
#X floatatom 680 601 5 0 0.99 0 - - -;
#X obj 672 252 *~;
#X obj 749 71 bng 15 250 50 0 empty empty empty 17 7 0 10 -262144 -1
-1;
#X obj 679 175 vline~;
#X obj 672 207 *~;
#X msg 679 144 1 \, 0 100 10;
#X obj 672 282 osc~;
#X obj 1081 434 delwrite~ \$0-fb2 1000;
#X obj 1082 545 delread4~ \$0-fb2;
#X obj 636 652 s~ recirc1;
#X obj 688 378 r~ recirc1;
#X floatatom 1210 599 5 0 0 0 - - -;
#X floatatom 1227 674 5 0 0.99 0 - - -;
#X obj 1183 726 s~ recirc2;
#X obj 1159 379 r~ recirc2;
#X floatatom 1278 596 5 0 0 0 - - -;
#X floatatom 1062 502 5 0 0 0 - - -;
#X obj 759 530 throw~ output1;
#X obj 1000 600 throw~ output1;
#X obj 57 686 catch~ masterout;
#X obj 848 687 catch~ output1;
#N canvas 0 23 585 394 fzz 0;
#X obj 37 37 inlet~;
#X obj 40 269 outlet~;
#X obj 280 178 scope~ 130 130 256 3 128 -1 1 0 0 0 0 205 229 232 74
79 77 96 98 102 0 empty;
#X obj 72 178 clip~ -0.5 0.5;
#X obj 64 114 *~ 2;
#X floatatom 113 71 5 0 0 0 - - -;
#X connect 0 0 4 0;
#X connect 3 0 1 0;
#X connect 3 0 2 0;
#X connect 4 0 3 0;
#X connect 5 0 4 1;
#X restore 890 741 pd fzz;
#X obj 848 778 throw~ masterout;
#X obj 74 34 mwn/midi/monosynth;
#X floatatom 30 130 5 0 0 0 - - -;
#X obj 92 129 f;
#X floatatom 33 238 5 0 0 0 - - -;
#X obj 100 169 / 100;
#X obj 621 427 r freq1;
#X obj 201 93 sel 0;
#X obj 235 127 t b;
#X obj 235 151 s note;
#X obj 752 28 r note;
#X obj 629 569 lop~ 222;
#X obj 636 628 *~ 0.86;
#X obj 1176 643 bp~ 765 10.47;
#X obj 1183 702 *~ 0.88;
#X obj 99 796 *~ 0.6;
#X obj 35 795 *~ 0.6;
#X msg 838 155 1 5 0 \, 0 100 10;
#X obj 183 272 notein;
#X floatatom 39 360 5 0 0 0 - - -;
#X obj 183 296 mtof;
#X floatatom 183 320 5 0 0 0 - - -;
#X floatatom 226 436 5 0 0 0 - - -;
#X obj 100 193 s freq10;
#X obj 226 412 expr ($f1 - 200) + ($f1/127);
#X obj 226 459 s freq11;
#X floatatom 39 407 5 0 0 0 - - -;
#X obj 39 430 s freq1;
#X obj 39 383 expr ( 40 * (127 - $f1)/127 );
#X connect 1 0 49 1;
#X connect 1 0 50 1;
#X connect 2 0 3 0;
#X connect 2 0 3 1;
#X connect 2 0 6 0;
#X connect 2 0 6 1;
#X connect 3 0 7 1;
#X connect 4 0 13 1;
#X connect 5 0 9 0;
#X connect 5 0 19 0;
#X connect 6 0 7 0;
#X connect 7 0 5 1;
#X connect 8 0 29 0;
#X connect 8 0 45 0;
#X connect 10 0 8 0;
#X connect 11 0 45 1;
#X connect 12 0 46 1;
#X connect 13 0 18 0;
#X connect 14 0 51 0;
#X connect 14 0 17 0;
#X connect 15 0 16 0;
#X connect 15 0 16 1;
#X connect 16 0 13 0;
#X connect 17 0 15 0;
#X connect 18 0 5 0;
#X connect 20 0 30 0;
#X connect 20 0 47 0;
#X connect 22 0 9 0;
#X connect 23 0 47 1;
#X connect 24 0 48 1;
#X connect 26 0 19 0;
#X connect 27 0 47 2;
#X connect 28 0 20 0;
#X connect 31 0 49 0;
#X connect 31 0 50 0;
#X connect 32 0 33 0;
#X connect 32 0 34 0;
#X connect 35 0 36 0;
#X connect 35 0 37 0;
#X connect 35 1 41 0;
#X connect 37 0 39 0;
#X connect 39 0 38 0;
#X connect 39 0 57 0;
#X connect 40 0 10 0;
#X connect 41 1 42 0;
#X connect 42 0 43 0;
#X connect 44 0 14 0;
#X connect 45 0 46 0;
#X connect 46 0 21 0;
#X connect 47 0 48 0;
#X connect 48 0 25 0;
#X connect 49 0 0 1;
#X connect 50 0 0 0;
#X connect 51 0 2 0;
#X connect 52 0 53 0;
#X connect 52 0 54 0;
#X connect 53 0 62 0;
#X connect 54 0 55 0;
#X connect 55 0 58 0;
#X connect 56 0 59 0;
#X connect 58 0 56 0;
#X connect 60 0 61 0;
#X connect 62 0 60 0;
