#N canvas 258 74 1329 873 12;
#X obj 64 51 key;
#X obj 64 75 select 32;
#X obj 65 114 bng 15 250 50 0 empty empty empty 17 7 0 10 -262144 -1
-1;
#X obj 63 158 tgl 15 0 empty empty empty 17 7 0 10 -262144 -1 -1 1
1;
#X msg 62 197 \; pd dsp \$1;
#X obj 359 296 mwn.fm, f 9;
#X obj 359 374 *~;
#X obj 347 418 dac~;
#X floatatom 436 343 5 0 0 0 - - -;
#X floatatom 302 177 5 0 0 0 - - -;
#X floatatom 372 178 5 0 0 0 - - -;
#X floatatom 449 181 5 0 0 0 - - -;
#X obj 294 16 loadbang;
#X msg 294 62 220;
#X msg 365 68 440;
#X msg 458 64 155;
#X obj 856 379 *~;
#X obj 844 423 dac~;
#X floatatom 932 364 5 0 0 0 - - -;
#X obj 794 109 phasor~;
#X floatatom 793 65 5 0 0 0 - - -;
#X obj 1036 237 vline~;
#X obj 793 150 log~ 2048;
#X obj 793 174 *~ 70;
#X obj 793 198 abs~;
#X obj 796 327 osc~;
#X obj 795 275 clip~ 50 10000;
#X obj 793 248 -~ 1200;
#X obj 793 222 *~ 32;
#X obj 573 482 mwn/drums/smack;
#X obj 589 579 *~;
#X obj 577 623 dac~;
#X floatatom 665 564 5 0 0 0 - - -;
#X obj 833 612 curve~;
#X obj 907 647 scope~ 130 130 256 3 128 -1 1 0 0 0 0 205 229 232 74
79 77 96 98 102 0;
#X obj 815 2 loadbang;
#X msg 815 26 8;
#X obj 112 397 cyclone;
#X obj 564 289 mwn/mwn.timebase 2 0;
#X connect 0 0 1 0;
#X connect 1 0 2 0;
#X connect 3 0 4 0;
#X connect 5 0 6 0;
#X connect 6 0 7 0;
#X connect 6 0 7 1;
#X connect 8 0 6 1;
#X connect 9 0 5 0;
#X connect 10 0 5 1;
#X connect 11 0 5 2;
#X connect 12 0 13 0;
#X connect 12 0 14 0;
#X connect 12 0 15 0;
#X connect 13 0 9 0;
#X connect 14 0 10 0;
#X connect 15 0 11 0;
#X connect 16 0 17 0;
#X connect 16 0 17 1;
#X connect 18 0 16 1;
#X connect 19 0 22 0;
#X connect 20 0 19 0;
#X connect 22 0 23 0;
#X connect 23 0 24 0;
#X connect 24 0 28 0;
#X connect 25 0 16 0;
#X connect 25 0 34 0;
#X connect 26 0 25 0;
#X connect 27 0 26 0;
#X connect 28 0 27 0;
#X connect 29 0 30 0;
#X connect 30 0 31 0;
#X connect 30 0 31 1;
#X connect 32 0 30 1;
#X connect 35 0 36 0;
#X connect 36 0 20 0;
#X connect 38 0 29 0;
