#N canvas 196 80 514 340 12;
#X obj 106 109 mwn/masterclock;
#X obj 71 185 bng 15 250 50 0 empty empty empty 17 7 0 10 -262144 -1
-1;
#X msg 187 20 1000;
#X floatatom 128 182 5 0 0 0 - - -;
#X floatatom 216 191 5 0 0 0 - - -;
#X floatatom 296 185 5 0 0 0 - - -;
#X floatatom 378 197 5 0 0 0 - - -;
#X msg 279 24 60;
#X floatatom 137 42 5 0 0 0 - - -;
#X floatatom 289 52 5 0 0 0 - - -;
#X obj 82 40 tgl 15 0 empty empty empty 17 7 0 10 -262144 -1 -1 0 1
;
#X connect 0 0 1 0;
#X connect 0 0 3 0;
#X connect 0 1 4 0;
#X connect 0 2 5 0;
#X connect 0 3 6 0;
#X connect 2 0 0 1;
#X connect 7 0 0 2;
#X connect 8 0 0 1;
#X connect 9 0 0 2;
#X connect 10 0 0 0;
