#N canvas 25 4 1116 612 12;
#X obj 172 506 mwn/drums/kick1;
#X obj 144 46 tgl 15 0 empty empty empty 17 7 0 10 -262144 -1 -1 1
1;
#X obj 144 66 metro;
#X floatatom 208 34 5 0 0 0 - - -;
#X obj 161 554 dac~;
#N canvas 625 83 1023 833 step_seq 0;
#X obj 42 194 hradio 100 1 0 8 empty empty empty 0 -8 0 10 -262144
-1 -1 1;
#X obj 147 127 mod 8;
#X obj 146 98 counter;
#X obj 292 148 sel 0 1 2 3 4 5 6 7;
#X obj 24 16 inlet step;
#X obj 111 17 inlet reset;
#X obj 828 599 outlet pitch;
#X obj 50 587 outlet gate;
#X obj 750 309 mwn/instruments/stepseq/step;
#X obj 50 312 mwn/instruments/stepseq/step;
#X obj 149 312 mwn/instruments/stepseq/step;
#X obj 250 312 mwn/instruments/stepseq/step;
#X obj 345 313 mwn/instruments/stepseq/step;
#X obj 452 310 mwn/instruments/stepseq/step;
#X obj 553 310 mwn/instruments/stepseq/step;
#X obj 648 311 mwn/instruments/stepseq/step;
#X connect 1 0 0 0;
#X connect 1 0 3 0;
#X connect 2 0 1 0;
#X connect 3 0 9 0;
#X connect 3 1 10 0;
#X connect 3 2 11 0;
#X connect 3 3 12 0;
#X connect 3 4 13 0;
#X connect 3 5 14 0;
#X connect 3 6 15 0;
#X connect 3 8 8 0;
#X connect 4 0 2 0;
#X connect 5 0 2 2;
#X connect 8 0 7 0;
#X connect 8 1 6 0;
#X connect 9 0 7 0;
#X connect 9 1 6 0;
#X connect 10 0 7 0;
#X connect 10 1 6 0;
#X connect 11 0 7 0;
#X connect 11 1 6 0;
#X connect 12 0 7 0;
#X connect 12 1 6 0;
#X connect 13 0 7 0;
#X connect 13 1 6 0;
#X connect 14 0 7 0;
#X connect 14 1 6 0;
#X connect 15 0 7 0;
#X connect 15 1 6 0;
#X coords 0 -1 1 1 840 250 1 30 180;
#X restore 144 112 pd step_seq;
#X floatatom 1071 577 5 0 0 0 - - -;
#X floatatom 62 522 5 0 0 0 - - -;
#X connect 0 0 4 0;
#X connect 0 0 4 1;
#X connect 1 0 2 0;
#X connect 2 0 5 0;
#X connect 3 0 2 1;
#X connect 5 0 7 0;
#X connect 5 1 6 0;
