#N canvas 452 54 1202 905 12;
#X floatatom 431 558 5 0 0 0 - - -;
#X obj 212 69 tgl 15 0 empty empty empty 17 7 0 10 -262144 -1 -1 0
1;
#X obj 214 90 metro;
#X obj 115 745 dac~ 1 2;
#X obj 132 666 *~;
#X obj 186 487 vsl 15 128 0.01 1 1 0 empty empty empty 0 -9 0 10 -262144
-1 -1 5800 1;
#X floatatom 229 665 5 0 0 0 - - -;
#X floatatom 262 49 5 0 0 0 - - -;
#X obj 121 142 bng 15 250 50 0 empty empty empty 17 7 0 10 -262144
-1 -1;
#X obj 476 605 sel 1 3 5 7;
#X obj 532 708 bng 15 250 50 0 empty empty empty 17 7 0 10 -262144
-1 -1;
#X obj 696 775 mwn/drums/bmmm;
#X obj 703 836 throw~ master;
#X obj 453 819 throw~ master;
#X obj 56 603 catch~ master;
#X obj 470 523 mwn/mwn.counter 8;
#X obj 446 758 mwn/drums/thmm;
#X obj 958 508 mwn/mwn.counter 16;
#X obj 1051 595 mwn/drums/smack;
#X obj 1051 619 throw~ master;
#X obj 959 533 sel 22;
#X obj 211 262 mwn/mwn.counter 2;
#X obj 213 304 sel 1;
#X floatatom 328 321 5 0 0 0 - - -;
#X floatatom 291 156 5 0 0 0 - - -;
#X obj 214 114 mwn/mwn.counter 16;
#X obj 209 196 bng 15 250 50 0 empty empty empty 17 7 0 10 -262144
-1 -1;
#X obj 215 158 sel 1;
#X obj 249 354 tgl 15 0 empty empty empty 17 7 0 10 -262144 -1 -1 1
1;
#X obj 215 399 spigot 1;
#X connect 1 0 2 0;
#X connect 2 0 8 0;
#X connect 2 0 25 0;
#X connect 4 0 3 0;
#X connect 4 0 3 1;
#X connect 5 0 4 1;
#X connect 5 0 6 0;
#X connect 7 0 2 1;
#X connect 8 0 29 0;
#X connect 9 0 16 0;
#X connect 9 1 10 0;
#X connect 9 1 11 0;
#X connect 9 2 16 0;
#X connect 9 3 11 0;
#X connect 11 0 12 0;
#X connect 14 0 4 0;
#X connect 15 0 0 0;
#X connect 15 0 9 0;
#X connect 16 0 13 0;
#X connect 17 0 20 0;
#X connect 18 0 19 0;
#X connect 20 1 18 0;
#X connect 21 0 22 0;
#X connect 21 0 23 0;
#X connect 22 0 28 0;
#X connect 25 0 24 0;
#X connect 25 0 27 0;
#X connect 25 0 17 0;
#X connect 26 0 21 0;
#X connect 27 0 26 0;
#X connect 28 0 29 1;
#X connect 29 0 15 0;
