#N canvas 389 121 751 558 12;
#X obj 212 363 midiout;
#X floatatom 76 106 0 0 0 0 - - -;
#X obj 57 55 notein;
#X floatatom 57 129 0 0 0 0 - - -;
#X floatatom 96 81 0 0 0 0 - - -;
#X text 106 107 velocity;
#X text 125 83 channel;
#X text 107 54 (omni);
#X text 87 129 note;
#X obj 518 358 noteout;
#X floatatom 503 330 3 0 0 0 - - -;
#X floatatom 541 330 3 0 0 0 - - -;
#X floatatom 576 330 2 0 0 0 - - -;
#X text 496 305 note;
#X text 593 330 channel;
#X text 537 304 velocity;
#X msg 485 239 79;
#X msg 542 239 127;
#X msg 607 238 1;
#X obj 531 100 bng 15 250 50 0 empty empty empty 17 7 0 10 -262144
-1 -1;
#X obj 113 250 adc~ 1 2;
#X obj 104 333 dac~ 1 2;
#X connect 1 0 11 0;
#X connect 2 0 3 0;
#X connect 2 1 1 0;
#X connect 2 2 4 0;
#X connect 3 0 10 0;
#X connect 4 0 12 0;
#X connect 10 0 9 0;
#X connect 11 0 9 1;
#X connect 12 0 9 2;
#X connect 16 0 10 0;
#X connect 17 0 11 0;
#X connect 18 0 12 0;
#X connect 19 0 16 0;
#X connect 19 0 17 0;
#X connect 19 0 18 0;
#X connect 20 0 21 0;
#X connect 20 1 21 1;
