#N canvas 25 4 773 598 12;
#X obj 172 506 mwn/drums/kick1;
#X obj 144 46 tgl 15 0 empty empty empty 17 7 0 10 -262144 -1 -1 1
1;
#X obj 144 66 metro;
#X floatatom 207 31 5 0 0 0 - - -;
#X obj 161 554 dac~;
#N canvas 503 98 1023 833 step_seq 1;
#X obj 161 169 hradio 15 1 0 8 empty empty empty 0 -8 0 10 -262144
-1 -1 0;
#X obj 147 127 mod 8;
#X obj 146 98 counter;
#X obj 147 209 sel 0 1 2 3 4 5 6 7;
#X obj 147 40 inlet step;
#X obj 259 38 inlet reset;
#X obj 351 791 outlet pitch;
#X obj 242 264 tgl 15 0 empty empty empty 17 7 0 10 -262144 -1 -1 1
1;
#X obj 283 644 f;
#X obj 351 764 f;
#X obj 147 295 f;
#X obj 109 472 spigot;
#X obj 186 793 outlet gate;
#X obj 251 676 delay;
#X obj 179 330 t b b;
#X msg 186 701 1;
#X msg 251 700 0;
#N canvas 0 22 665 681 step 1;
#X obj 307 291 outlet pitch;
#X obj 109 113 knob 32 32 0 127 0 0 empty empty empty 0 -8 0 8 5.43547e+06
1 5.43091e+06 0 1;
#X obj 148 114 knob 32 32 0 127 0 0 empty empty empty 0 -8 0 8 5.43547e+06
1 5.43091e+06 0 1;
#X obj 179 255 f;
#X obj 307 257 f;
#X obj 94 33 inlet;
#X obj 179 291 outlet gate;
#X connect 1 0 3 1;
#X connect 2 0 4 1;
#X connect 3 0 6 0;
#X connect 4 0 0 0;
#X connect 5 0 4 0;
#X connect 5 0 3 0;
#X coords 0 -1 1 1 85 60 1 100 100;
#X restore 661 394 pd step;
#X connect 1 0 0 0;
#X connect 1 0 3 0;
#X connect 2 0 1 0;
#X connect 3 0 10 0;
#X connect 4 0 2 0;
#X connect 5 0 2 2;
#X connect 7 0 10 1;
#X connect 8 0 11 0;
#X connect 8 0 13 1;
#X connect 9 0 6 0;
#X connect 10 0 11 1;
#X connect 10 0 14 0;
#X connect 13 0 16 0;
#X connect 14 0 13 0;
#X connect 14 0 15 0;
#X connect 14 1 8 0;
#X connect 15 0 12 0;
#X connect 16 0 12 0;
#X restore 155 227 pd step_seq;
#X floatatom 252 309 5 0 0 0 - - -;
#X floatatom 126 299 5 0 0 0 - - -;
#X connect 0 0 4 0;
#X connect 0 0 4 1;
#X connect 1 0 2 0;
#X connect 2 0 5 0;
#X connect 3 0 2 1;
#X connect 5 0 7 0;
#X connect 5 1 6 0;
