#N canvas 250 44 1428 941 12;
#X obj 345 528 *~;
#X msg 233 315 1;
#X msg 386 280 open /Users/studio/Music/Audio Hijack/App Recording
2.01706e+07 1204.mp3;
#X obj 140 202 openpanel;
#X obj 94 249 print;
#X obj 109 173 bng 15 250 50 0 empty empty empty 17 7 0 10 -262144
-1 -1;
#X obj 155 298 print;
#X msg 155 274 open \$1;
#X floatatom 539 462 5 0 0 0 - - -;
#X msg 290 175 open /Users/studio/Music/Samples/drums/hitsville/Reverb\\\ Studio\\\ Sampled\\\ Sounds\\\ -\\\ Drum\\\ Series\\\ Vol.\\\ 1\\\ |\\\ Hitsville\\\,\\\ USA\\\ -\\\ Detroit\\\,\\\ MI_Sample\\\ Pack/Drums\\\ Percussion/85MotorCityFunk_Loop_perc_6.wav
;
#X obj 233 77 t b b;
#X obj 216 26 r loop;
#X obj 399 446 s loop;
#X obj 698 892 dac~ 1 2;
#X msg 259 258 0;
#X obj 345 589 dac~ 3 4;
#X obj 654 642 adc~ 5 6;
#X obj 46 578 scope~ 130 130 256 3 128 -1 1 0 0 0 0 205 229 232 74
79 77 96 98 102 0;
#X obj 764 646 adc~ 7 8;
#X obj 307 401 readsf~ 2;
#X obj 540 413 loadbang;
#X msg 540 437 0.9;
#X obj 413 536 *~;
#X obj 805 710 mwn/stereo_vol;
#X obj 483 691 mwn/stereo_vol;
#X connect 0 0 15 0;
#X connect 0 0 17 0;
#X connect 0 0 24 0;
#X connect 1 0 19 0;
#X connect 2 0 19 0;
#X connect 3 0 7 0;
#X connect 5 0 3 0;
#X connect 7 0 6 0;
#X connect 7 0 19 0;
#X connect 8 0 0 1;
#X connect 8 0 22 1;
#X connect 9 0 19 0;
#X connect 10 0 1 0;
#X connect 10 1 9 0;
#X connect 11 0 10 0;
#X connect 14 0 19 0;
#X connect 16 0 13 0;
#X connect 16 1 13 1;
#X connect 18 0 23 0;
#X connect 18 1 23 1;
#X connect 19 0 0 0;
#X connect 19 1 22 0;
#X connect 19 2 12 0;
#X connect 20 0 21 0;
#X connect 21 0 8 0;
#X connect 22 0 15 1;
#X connect 22 0 24 1;
#X connect 23 0 13 0;
#X connect 23 1 13 1;
#X connect 24 0 13 0;
#X connect 24 1 13 1;
