#N canvas 506 144 1174 879 12;
#X floatatom 102 121 0 0 0 0 - - -;
#X floatatom 49 154 0 0 0 0 - - -;
#X text 132 122 velocity;
#X text 79 154 note;
#N canvas 42 253 1008 718 kpstr 1;
#X obj 665 323 noise~;
#X obj 701 386 *~;
#X msg 782 377 0;
#X msg 732 319 1;
#X obj 767 278 bng 15 250 50 0 empty empty empty 17 7 0 10 -262144
-1 -1;
#X obj 783 347 delay 25;
#X obj 694 457 delwrite~ del 500;
#X obj 249 403 delread4~ del;
#X floatatom 249 372 5 0 0 0 - - -;
#X obj 337 475 lop~ 5000;
#X floatatom 253 110 5 0 0 0 - - -;
#X obj 272 150 t b f;
#X floatatom 383 406 5 0 0.99999 0 - - -;
#X obj 333 444 *~;
#X text 292 371 delay time (pitch);
#X text 440 406 decay (max 1);
#X floatatom 249 225 5 0 0 0 - - -;
#X text 297 225 MIDI note;
#X obj 249 250 mtof;
#X obj 252 338 expr 1000 / $f1;
#X obj 262 567 outlet~;
#X obj 252 57 inlet midi note;
#X obj 402 55 inlet decay;
#X obj 54 51 bendin 1;
#X obj 71 116 / 8192;
#X floatatom 144 171 5 0 0 0 - - -;
#X obj 70 90 f 8192;
#X obj 71 140 - 1;
#X obj 70 173 mtof;
#X floatatom 31 224 5 0 0 0 - - -;
#X obj 248 308 +;
#X obj 70 197 t b f;
#X obj 90 305 bng 15 250 50 0 empty empty empty 17 7 0 10 -262144 -1
-1;
#X obj 249 274 f;
#X connect 0 0 1 0;
#X connect 1 0 6 0;
#X connect 2 0 1 1;
#X connect 3 0 1 1;
#X connect 4 0 5 0;
#X connect 4 0 3 0;
#X connect 5 0 2 0;
#X connect 7 0 13 0;
#X connect 7 0 20 0;
#X connect 8 0 7 0;
#X connect 9 0 6 0;
#X connect 10 0 11 0;
#X connect 10 0 16 0;
#X connect 11 0 4 0;
#X connect 12 0 13 1;
#X connect 13 0 9 0;
#X connect 16 0 18 0;
#X connect 18 0 33 0;
#X connect 19 0 8 0;
#X connect 21 0 10 0;
#X connect 22 0 12 0;
#X connect 23 0 26 0;
#X connect 24 0 27 0;
#X connect 26 0 24 0;
#X connect 27 0 25 0;
#X connect 27 0 28 0;
#X connect 28 0 29 0;
#X connect 28 0 31 0;
#X connect 30 0 19 0;
#X connect 31 0 32 0;
#X connect 31 0 33 0;
#X connect 31 1 30 1;
#X connect 33 0 30 0;
#X restore 274 465 pd kpstr;
#X floatatom 729 270 5 0 0.99999 0 - - -;
#X obj 600 61 loadbang;
#X msg 775 235 0.9;
#X obj 315 201 select 0;
#X obj 368 240 bng 15 250 50 0 empty empty empty 17 7 0 10 -262144
-1 -1;
#X obj 315 239 bng 15 250 50 0 empty empty empty 17 7 0 10 -262144
-1 -1;
#X floatatom 248 410 5 0 0 0 - - -;
#X obj 325 355 bng 15 250 50 0 empty empty empty 17 7 0 10 -262144
-1 -1;
#X obj 313 285 tgl 15 0 empty empty empty 17 7 0 10 -262144 -1 -1 0
1;
#X floatatom 600 223 5 0 0 0 - - -;
#X floatatom 682 593 5 0 0 0 - - -;
#X obj 683 567 snapshot~;
#X obj 769 523 *~ 1024;
#X obj 312 323 metro;
#X obj 729 114 f \$2;
#X obj 600 115 f \$1;
#X obj 176 675 outlet~;
#X obj 759 628 outlet~;
#X text 517 598 audio out;
#X text 655 227 repluck;
#X text 839 627 trigger out;
#X text 16 15 Karplus-Strong Midi Instrument;
#X obj 189 614 *~;
#X obj 150 394 / 127;
#X obj 104 355 moses 1;
#X floatatom 408 200 5 0 0 0 - - -;
#X obj 470 113 ctlin 1 1, f 10;
#X obj 49 80 notein 1;
#X text 99 79;
#X obj 470 137 / -127;
#X obj 470 185 * 100;
#X floatatom 415 168 5 0 0 0 - - -;
#X obj 470 161 + 1;
#X connect 0 0 8 0;
#X connect 0 0 29 0;
#X connect 1 0 11 0;
#X connect 4 0 27 1;
#X connect 5 0 4 1;
#X connect 6 0 19 0;
#X connect 6 0 20 0;
#X connect 7 0 5 0;
#X connect 8 0 10 0;
#X connect 8 1 9 0;
#X connect 9 0 13 0;
#X connect 10 0 13 0;
#X connect 11 0 4 0;
#X connect 12 0 11 0;
#X connect 12 0 16 0;
#X connect 13 0 17 0;
#X connect 13 0 18 0;
#X connect 14 0 18 1;
#X connect 15 0 22 0;
#X connect 16 0 15 0;
#X connect 17 0 16 0;
#X connect 17 0 22 0;
#X connect 18 0 12 0;
#X connect 19 0 5 0;
#X connect 20 0 14 0;
#X connect 27 0 21 0;
#X connect 28 0 27 0;
#X connect 29 1 28 0;
#X connect 31 0 34 0;
#X connect 32 0 1 0;
#X connect 32 1 0 0;
#X connect 34 0 37 0;
#X connect 35 0 30 0;
#X connect 35 0 18 1;
#X connect 37 0 35 0;
#X connect 37 0 36 0;
