#N canvas 0 22 780 861 12;
#X obj 161 169 hradio 15 1 0 8 empty empty empty 0 -8 0 10 -262144
-1 -1 6;
#X obj 147 127 mod 8;
#X obj 146 98 counter;
#X obj 147 209 sel 0 1 2 3 4 5 6 7;
#X obj 24 16 inlet step;
#X obj 111 17 inlet reset;
#X obj 280 783 outlet pitch;
#X obj 132 782 outlet gate;
#N canvas 5 149 665 681 step 0;
#X obj 220 489 outlet pitch;
#X obj 108 151 knob 32 32 0 127 0 0 empty empty empty 0 -8 0 8 5.43547e+06
1 5.43091e+06 0 1;
#X obj 148 153 knob 32 32 0 127 0 0 empty empty empty 0 -8 0 8 5.43547e+06
1 5.43091e+06 0 1;
#X obj 95 300 f;
#X obj 223 302 f;
#X obj 94 33 inlet;
#X obj 62 503 outlet gate;
#X obj 107 111 tgl 15 0 empty empty empty 17 7 0 10 -262144 -1 -1 0
1;
#X obj 38 188 f;
#X obj 38 212 spigot;
#X msg 31 388 1;
#X obj 85 387 delay;
#X msg 85 411 0;
#X obj 38 236 t b;
#X connect 1 0 3 0;
#X connect 2 0 4 1;
#X connect 3 0 11 1;
#X connect 4 0 0 0;
#X connect 5 0 8 0;
#X connect 7 0 8 1;
#X connect 8 0 9 0;
#X connect 9 0 4 0;
#X connect 9 0 13 0;
#X connect 10 0 6 0;
#X connect 11 0 12 0;
#X connect 12 0 6 0;
#X connect 13 0 11 0;
#X connect 13 0 10 0;
#X coords 0 -1 1 1 85 100 1 100 100;
#X restore 130 343 pd step;
#N canvas 5 149 665 681 step 0;
#X obj 220 489 outlet pitch;
#X obj 108 151 knob 32 32 0 127 0 0 empty empty empty 0 -8 0 8 5.43547e+06
1 5.43091e+06 0 1;
#X obj 148 153 knob 32 32 0 127 0 0 empty empty empty 0 -8 0 8 5.43547e+06
1 5.43091e+06 0 1;
#X obj 223 302 f;
#X obj 39 33 inlet;
#X obj 62 503 outlet gate;
#X obj 107 111 tgl 15 0 empty empty empty 17 7 0 10 -262144 -1 -1 0
1;
#X obj 68 176 f;
#X obj 38 212 spigot;
#X msg 31 388 1;
#X obj 85 387 delay;
#X msg 85 411 0;
#X obj 38 236 t b;
#X obj 43 70 t b;
#X connect 1 0 10 1;
#X connect 2 0 3 1;
#X connect 3 0 0 0;
#X connect 4 0 13 0;
#X connect 6 0 7 0;
#X connect 7 0 8 1;
#X connect 8 0 12 0;
#X connect 9 0 5 0;
#X connect 10 0 11 0;
#X connect 11 0 5 0;
#X connect 12 0 10 0;
#X connect 12 0 9 0;
#X connect 12 0 3 0;
#X connect 13 0 8 0;
#X coords 0 -1 1 1 85 100 1 100 100;
#X restore 482 359 pd step;
#X connect 1 0 0 0;
#X connect 1 0 3 0;
#X connect 2 0 1 0;
#X connect 3 0 8 0;
#X connect 3 4 9 0;
#X connect 4 0 2 0;
#X connect 5 0 2 2;
#X connect 8 0 7 0;
#X connect 8 1 6 0;
#X connect 9 0 7 0;
#X connect 9 1 6 0;
