#N canvas 0 22 695 526 10;
#X obj 226 50 noise~;
#X obj 295 302 osc~ 40;
#X obj 242 171 *~ 300;
#X obj 343 390 *~;
#X obj 421 356 vline~;
#X msg 435 313 1 0 \, 0.25 1500 0 \, 0 2500 0;
#X obj 493 33 inlet;
#X obj 342 435 outlet~;
#X obj 289 264 +~ 50;
#X obj 255 117 bp~ 300 0.9;
#X connect 0 0 9 0;
#X connect 1 0 3 0;
#X connect 2 0 8 0;
#X connect 3 0 7 0;
#X connect 4 0 3 1;
#X connect 5 0 4 0;
#X connect 6 0 5 0;
#X connect 8 0 1 0;
#X connect 9 0 2 0;
