#N canvas 16 110 981 658 10;
#X obj 391 629 dac~;
#X obj 251 3 tgl 15 0 empty empty empty 17 7 0 10 -262144 -1 -1 0 1
;
#X obj 226 48 bng 15 250 50 0 empty empty empty 17 7 0 10 -262144 -1
-1;
#X obj 269 79 f;
#X floatatom 251 109 5 0 0 0 - - -;
#X obj 316 69 + 1;
#X obj 154 275 crumble;
#X obj 351 309 tscchh;
#X obj 199 137 mod 16;
#X obj 302 183 sel 0;
#X obj 252 29 metro 50;
#X obj 273 149 mod 4;
#X obj 448 139 mod 512;
#X obj 466 234 sel 0 128 256 384 512;
#X obj 537 325 am-drone;
#X obj 625 235 sel 64;
#X obj 658 330 drone2;
#X obj 729 238 sel 256;
#X obj 742 335 drone3;
#X obj 483 407 +~;
#X obj 496 478 *~;
#X obj 539 412 osc~ 440;
#X obj 639 399 osc~ 0.1;
#X obj 557 453 *~;
#X obj 628 450 *~ 0.5;
#X obj 646 427 +~ 100;
#X obj 460 513 *~ 0.01;
#X obj 168 338 *~ 7;
#X obj 187 446 *~ 0.01;
#X obj 253 510 fdn~ 32 128000;
#X obj 359 347 *~ 0.1;
#X obj 411 557 +~;
#X obj 406 582 *~ 0.1;
#X obj 175 170 sel 0 4 8 12;
#X msg 365 257 50;
#X msg 417 258 200;
#X obj 364 189 sel 60 62 63;
#X obj 375 156 mod 128;
#X connect 1 0 10 0;
#X connect 2 0 3 0;
#X connect 3 0 4 0;
#X connect 3 0 5 0;
#X connect 4 0 8 0;
#X connect 4 0 11 0;
#X connect 4 0 12 0;
#X connect 4 0 37 0;
#X connect 5 0 3 1;
#X connect 6 0 27 0;
#X connect 7 0 30 0;
#X connect 8 0 33 0;
#X connect 9 0 7 0;
#X connect 10 0 2 0;
#X connect 11 0 9 0;
#X connect 12 0 13 0;
#X connect 12 0 15 0;
#X connect 12 0 17 0;
#X connect 13 0 14 0;
#X connect 13 1 14 0;
#X connect 13 3 14 0;
#X connect 13 4 14 0;
#X connect 14 0 19 0;
#X connect 15 0 16 0;
#X connect 16 0 19 0;
#X connect 17 0 18 0;
#X connect 18 0 19 0;
#X connect 19 0 20 0;
#X connect 20 0 26 0;
#X connect 21 0 23 0;
#X connect 22 0 25 0;
#X connect 23 0 20 1;
#X connect 24 0 23 1;
#X connect 25 0 24 0;
#X connect 26 0 31 0;
#X connect 27 0 28 0;
#X connect 27 0 31 0;
#X connect 28 0 29 0;
#X connect 29 0 0 0;
#X connect 29 1 0 1;
#X connect 30 0 31 0;
#X connect 31 0 32 0;
#X connect 32 0 0 0;
#X connect 32 0 0 1;
#X connect 33 0 6 0;
#X connect 33 0 34 0;
#X connect 33 1 35 0;
#X connect 34 0 7 1;
#X connect 35 0 7 1;
#X connect 36 0 7 0;
#X connect 36 1 7 0;
#X connect 36 2 7 0;
#X connect 37 0 36 0;
