#N canvas 578 30 654 744 10;
#X obj 446 67 inlet;
#X obj 294 657 outlet~;
#X obj 294 448 vline~;
#X obj 274 486 *~;
#X obj 30 163 osc~;
#X obj 24 133 *~ 200;
#X obj 229 185 osc~;
#X obj 110 246 +~;
#X obj 136 180 osc~;
#X obj 128 102 +~ 880;
#X obj 28 73 osc~ 400;
#X obj 28 106 +~ 397;
#X obj 135 148 *~ 200;
#X obj 224 154 *~ 1000;
#X obj 43 439 vline~;
#X obj 11 485 *~;
#X obj 486 459 vline~;
#X obj 454 505 *~;
#X obj 23 340 bp~ 100;
#X obj 130 65 osc~ 881;
#X obj 221 107 +~ 1022;
#X obj 223 70 osc~ 1048;
#X obj 473 342 bp~ 2000;
#X obj 263 342 bp~ 600;
#X obj 285 573 +~;
#X obj 306 630 *~;
#X obj 446 116 bng 15 250 50 0 empty empty empty 17 7 0 10 -262144
-1 -1;
#X msg 42 405 0.5 40 0 \, 0.2 100 100 \, 0 80 200;
#X msg 485 425 1 0 0 \, 0.25 50 0 \, 0 25 50;
#X obj 388 549 rand~;
#X obj 345 608 +~ 1.1;
#X obj 515 69 inlet;
#X floatatom 531 129 5 0 0 0 - - -;
#X obj 507 198 expr $f1 \; if($f1 > 1 \, 150 \, 50);
#X floatatom 547 268 5 0 0 0 - - -;
#X floatatom 599 263 5 0 0 0 - - -;
#X msg 297 413 1 0 0 \, 0.5 75 0 \, 0 \$0 100;
#X connect 0 0 26 0;
#X connect 2 0 3 1;
#X connect 3 0 24 0;
#X connect 4 0 7 0;
#X connect 5 0 4 0;
#X connect 6 0 7 0;
#X connect 7 0 18 0;
#X connect 7 0 22 0;
#X connect 7 0 23 0;
#X connect 8 0 7 0;
#X connect 9 0 12 0;
#X connect 10 0 11 0;
#X connect 11 0 5 0;
#X connect 12 0 8 0;
#X connect 13 0 6 0;
#X connect 14 0 15 1;
#X connect 15 0 24 0;
#X connect 16 0 17 1;
#X connect 17 0 24 0;
#X connect 18 0 15 0;
#X connect 19 0 9 0;
#X connect 20 0 13 0;
#X connect 21 0 20 0;
#X connect 22 0 17 0;
#X connect 23 0 3 0;
#X connect 24 0 25 0;
#X connect 25 0 1 0;
#X connect 26 0 28 0;
#X connect 26 0 27 0;
#X connect 27 0 14 0;
#X connect 28 0 16 0;
#X connect 29 0 30 0;
#X connect 30 0 25 1;
#X connect 31 0 32 0;
#X connect 31 0 36 0;
#X connect 32 0 33 0;
#X connect 33 0 34 0;
#X connect 33 1 35 0;
#X connect 36 0 2 0;
