#N canvas 655 99 1062 701 10;
#X obj 359 162 masterclock;
#X obj 298 103 tgl 15 0 empty empty empty 17 7 0 10 -262144 -1 -1 1
1;
#X obj 435 71 hsl 128 15 3000 100 0 0 empty empty empty -2 -8 0 10
-262144 -1 -1 12200 1;
#X floatatom 424 104 5 0 0 0 - - -;
#X floatatom 459 198 5 0 0 0 - - -;
#X obj 331 197 bng 15 250 50 0 empty empty empty 17 7 0 10 -262144
-1 -1;
#X floatatom 390 194 5 0 0 0 - - -;
#X obj 195 448 makenote;
#X msg 191 395 48 127 50;
#X obj 207 492 noteout 1;
#X obj 545 280 sel 0 4 8 12 16 20 24 28 32 36 40 44 48 52 56 60;
#X obj 390 227 mod 16;
#X obj 427 459 makenote;
#X msg 423 406 48 127 50;
#X obj 439 503 noteout 33;
#X obj 565 450 makenote;
#X obj 577 494 noteout 17;
#X msg 434 37 214;
#X obj 435 8 loadbang;
#X obj 524 251 mod 64;
#X msg 561 397 64 127 150;
#X obj 416 321 sel 2 6 9 15;
#X obj 246 288 sel 0 4 9 12 15;
#X obj 265 252 mod 18;
#X connect 0 0 5 0;
#X connect 0 1 6 0;
#X connect 0 2 4 0;
#X connect 1 0 0 0;
#X connect 2 0 3 0;
#X connect 3 0 0 1;
#X connect 6 0 11 0;
#X connect 6 0 19 0;
#X connect 6 0 23 0;
#X connect 7 0 9 0;
#X connect 7 1 9 1;
#X connect 8 0 7 0;
#X connect 10 0 20 0;
#X connect 10 4 20 0;
#X connect 10 12 20 0;
#X connect 10 16 20 0;
#X connect 11 0 21 0;
#X connect 12 0 14 0;
#X connect 12 1 14 1;
#X connect 13 0 12 0;
#X connect 15 0 16 0;
#X connect 15 1 16 1;
#X connect 17 0 2 0;
#X connect 18 0 17 0;
#X connect 19 0 10 0;
#X connect 20 0 15 0;
#X connect 21 0 13 0;
#X connect 21 1 13 0;
#X connect 21 2 13 0;
#X connect 21 3 13 0;
#X connect 22 0 8 0;
#X connect 22 1 8 0;
#X connect 22 2 8 0;
#X connect 22 3 8 0;
#X connect 22 4 8 0;
#X connect 23 0 22 0;
