#N canvas 1418 124 1218 776 10;
#X floatatom 63 150 5 0 0 0 - - -;
#X floatatom 134 151 5 0 0 0 - - -;
#X floatatom 494 114 5 0 0 0 - - -;
#X floatatom 396 111 5 0 0 0 - - -;
#X floatatom 438 112 5 0 0 0 - - -;
#X obj 430 65 ctlin;
#X obj 88 66 notein 1;
#X floatatom 221 234 5 0 0 0 - - -;
#X floatatom 292 235 5 0 0 0 - - -;
#X obj 246 150 notein 34;
#X floatatom 622 143 5 0 0 0 - - -;
#X floatatom 693 144 5 0 0 0 - - -;
#X floatatom 757 147 5 0 0 0 - - -;
#X obj 966 105 metro;
#X obj 996 79 expr (60000/24)/$f1;
#X obj 996 61 nbx 3 14 -1e+37 1e+37 0 1 empty empty empty 0 -8 0 10
-262144 -1 -1 118 256;
#X obj 962 36 tgl 15 0 empty empty empty 17 7 0 10 -262144 -1 -1 0
1;
#X floatatom 1007 106 5 0 0 0 - - -;
#X msg 967 148 248;
#X msg 902 148 250;
#X msg 933 148 252;
#X obj 912 106 sel 1 0;
#X obj 1018 155 bng 23 50 10 0 empty empty empty 17 7 0 10 -262144
-1 -1;
#X obj 950 65 t f f;
#X text 950 -21 midi clock out;
#X obj 998 38 loadbang;
#X obj 660 335 noteout 1;
#X obj 647 59 notein;
#X obj 951 196 midiout 52;
#X obj 425 202 bendout;
#X obj 459 232 bendin;
#X floatatom 449 271 5 0 0 0 - - -;
#X floatatom 502 272 5 0 0 0 - - -;
#X obj 148 294 * 16;
#X floatatom 149 263 5 0 0 0 - - -;
#X obj 167 334 +;
#X floatatom 166 366 5 0 0 0 - - -;
#X floatatom 195 299 5 0 0 0 - - -;
#X obj 81 407 noteout;
#X msg 377 490 48 127;
#X obj 399 537 noteout 17;
#X msg 435 491 48 0;
#X obj 272 544 noteout 1;
#X msg 259 494 48 127;
#X msg 324 495 48 0;
#X msg 479 494 48 127;
#X msg 537 495 48 0;
#X msg 588 497 48 127;
#X msg 646 498 48 0;
#X obj 501 541 noteout 33;
#X obj 610 544 noteout 49;
#X obj 290 322 noteout 33;
#X connect 0 0 38 0;
#X connect 1 0 38 1;
#X connect 5 0 3 0;
#X connect 5 1 4 0;
#X connect 5 2 2 0;
#X connect 6 0 0 0;
#X connect 6 1 1 0;
#X connect 7 0 51 0;
#X connect 8 0 51 1;
#X connect 9 0 7 0;
#X connect 9 1 8 0;
#X connect 10 0 26 0;
#X connect 11 0 26 1;
#X connect 13 0 18 0;
#X connect 13 0 22 0;
#X connect 14 0 13 1;
#X connect 14 0 17 0;
#X connect 15 0 14 0;
#X connect 16 0 23 0;
#X connect 18 0 28 0;
#X connect 19 0 28 0;
#X connect 20 0 28 0;
#X connect 21 0 19 0;
#X connect 21 1 20 0;
#X connect 23 0 13 0;
#X connect 23 1 21 0;
#X connect 25 0 15 0;
#X connect 27 0 10 0;
#X connect 27 1 11 0;
#X connect 27 2 12 0;
#X connect 30 0 31 0;
#X connect 30 1 32 0;
#X connect 33 0 35 0;
#X connect 34 0 33 0;
#X connect 35 0 36 0;
#X connect 36 0 38 2;
#X connect 37 0 35 1;
#X connect 39 0 40 0;
#X connect 41 0 40 0;
#X connect 43 0 42 0;
#X connect 44 0 42 0;
#X connect 45 0 49 0;
#X connect 46 0 49 0;
#X connect 47 0 50 0;
#X connect 48 0 50 0;
