#N canvas 681 38 726 548 12;
#X msg 85 226 \; pd dsp \$1;
#X obj 94 194 tgl 19 0 empty empty empty 0 -10 0 12 #fcfcfc #000000 #000000 0 1;
#X obj 285 385 *~;
#X obj 308 360 vline~;
#X obj 220 494 dac~ 1 2;
#X obj 176 289 noise~;
#X obj 259 246 phasor~;
#X obj 237 171 +~ 440;
#X obj 237 123 osc~ 12;
#X obj 237 147 *~ 3;
#X msg 411 301 0 \, 20 15 0 \, 0 2500 10;
#X obj 256 303 vcf~ 90;
#X obj 387 152 *~ 400;
#X obj 387 176 +~ 1000;
#X obj 387 128 osc~ 0.4;
#X connect 1 0 0 0;
#X connect 2 0 4 0;
#X connect 2 0 4 1;
#X connect 3 0 2 1;
#X connect 6 0 11 0;
#X connect 7 0 6 0;
#X connect 8 0 9 0;
#X connect 9 0 7 0;
#X connect 10 0 3 0;
#X connect 11 0 2 0;
#X connect 12 0 13 0;
#X connect 13 0 11 1;
#X connect 14 0 12 0;
