#N canvas 836 101 465 422 10;
#X obj 57 42 inlet;
#X obj 132 114 +;
#X obj 150 57 inlet;
#X obj 252 74 inlet;
#X obj 143 155 *;
#X obj 162 195 %;
#X obj 175 229 <;
#X obj 346 148 inlet;
#X obj 175 256 sel 1;
#X obj 175 280 outlet;
#X text 245 57 hits per bar;
#X text 346 127 beats per bar;
#X text 152 37 rotation;
#X connect 0 0 1 0;
#X connect 1 0 4 0;
#X connect 2 0 1 1;
#X connect 3 0 4 1;
#X connect 3 0 6 1;
#X connect 4 0 5 0;
#X connect 5 0 6 0;
#X connect 6 0 8 0;
#X connect 7 0 5 1;
#X connect 8 0 9 0;
