#N canvas 603 145 890 583 10;
#X msg 141 421 248;
#X text 135 399 clock tick;
#X text 266 403 start;
#X msg 265 423 250;
#X text 338 403 continue;
#X msg 338 422 251;
#X text 433 406 stop;
#X msg 431 426 252;
#X obj 258 546 midiout;
#X obj 93 116 tgl 15 0 empty empty empty 17 7 0 10 -262144 -1 -1 1
1;
#X obj 91 254 metro;
#X text 143 255 24 ppqn (pulses per quarter note);
#X floatatom 184 207 5 0 0 0 - - -, f 5;
#X floatatom 139 116 5 0 0 0 - - -, f 5;
#X text 177 110 bpm;
#X obj 128 218 / 24;
#X floatatom 184 239 5 0 0 0 - - -, f 5;
#X obj 130 172 /;
#X obj 138 144 swap 1;
#X obj 129 194 * 60000;
#X connect 0 0 8 0;
#X connect 3 0 8 0;
#X connect 5 0 8 0;
#X connect 7 0 8 0;
#X connect 9 0 10 0;
#X connect 10 0 0 0;
#X connect 13 0 18 0;
#X connect 15 0 10 1;
#X connect 15 0 16 0;
#X connect 17 0 19 0;
#X connect 18 0 17 0;
#X connect 18 1 17 1;
#X connect 19 0 12 0;
#X connect 19 0 15 0;
