#N canvas 0 22 474 392 12;
#X obj 169 200 phasor~;
#X obj 153 20 loadbang;
#X obj 169 226 delta~;
#X obj 122 320 bng 15 250 50 0 empty empty empty 17 7 0 10 -262144
-1 -1;
#X obj 170 279 cyclone/edge~;
#X obj 170 303 outlet;
#X obj 210 63 f \$2;
#X floatatom 64 129 5 0 0 0 - - -;
#X floatatom 258 118 5 0 0 0 - - -;
#X obj 367 223 outlet;
#X obj 97 68 f \$1;
#X obj 169 253 cyclone/<=~ 0;
#X connect 0 0 2 0;
#X connect 1 0 6 0;
#X connect 1 0 10 0;
#X connect 2 0 11 0;
#X connect 4 0 3 0;
#X connect 4 0 5 0;
#X connect 6 0 0 1;
#X connect 6 0 8 0;
#X connect 7 0 9 0;
#X connect 10 0 0 0;
#X connect 10 0 7 0;
#X connect 11 0 4 0;
