#N canvas 111 354 526 540 12;
#X obj 38 6 inlet;
#X obj 123 519 outlet~;
#X msg 37 61 1 0 \, 0 150 0;
#X obj 37 85 vline~;
#X obj 114 458 *~;
#X obj 326 203 noise~;
#X obj 186 227 osc~;
#X obj 225 282 +~;
#X obj 164 86 vline~;
#X obj 164 110 pow~ 4;
#X msg 164 62 1 0 \, 0 1500 0;
#X obj 168 154 *~ 1111;
#X obj 229 193 +~;
#X obj 277 119 osc~;
#X obj 277 143 *~ 1200;
#X obj 318 245 *~ 0.4;
#X obj 187 434 hip~;
#X obj 213 375 vcf~;
#X floatatom 258 412 5 0 0 0 - - -;
#X floatatom 297 315 5 0 0 0 - - -;
#X floatatom 320 352 5 0 0 0 - - -;
#X connect 0 0 2 0;
#X connect 0 0 10 0;
#X connect 2 0 3 0;
#X connect 3 0 4 0;
#X connect 4 0 1 0;
#X connect 5 0 15 0;
#X connect 6 0 7 0;
#X connect 7 0 17 0;
#X connect 8 0 9 0;
#X connect 9 0 11 0;
#X connect 10 0 8 0;
#X connect 11 0 12 0;
#X connect 12 0 6 0;
#X connect 13 0 14 0;
#X connect 14 0 12 1;
#X connect 15 0 7 1;
#X connect 16 0 4 1;
#X connect 17 1 16 0;
#X connect 18 0 16 1;
#X connect 19 0 17 1;
#X connect 20 0 17 2;
