#N canvas 596 110 656 587 10;
#X obj 38 189 noise~;
#X obj 277 485 *~;
#X obj 100 260 vcf~;
#X obj 313 277 vline~;
#X obj 279 533 outlet~;
#X msg 308 174 1 0 0 \, 0.4 50 10 \, 0 250 0;
#X obj 197 16 inlet;
#X floatatom 188 246 5 0 0 0 - - -;
#X obj 93 132 vline~;
#X msg 86 100 4094 0 0 \, 2500 100 0;
#X obj 421 276 phasor~ 110;
#X obj 25 306 osc~ 180;
#X obj 99 306 osc~ 330;
#X obj 243 449 +~;
#X obj 128 357 *~ 0.1;
#X obj 55 354 *~ 0.1;
#X obj 424 329 complex-mod~;
#X floatatom 498 302 5 0 0 0 - - -;
#X obj 194 348 *~ 1;
#X msg 537 270 175;
#X obj 541 198 loadbang;
#X msg 584 282 224;
#X floatatom 580 304 5 0 0 0 - - -;
#X obj 569 350 complex-mod~;
#X obj 550 382 *~ 0.5;
#X obj 428 360 *~ 0.01;
#X msg 240 223 2.755;
#X connect 0 0 2 0;
#X connect 1 0 4 0;
#X connect 2 0 18 0;
#X connect 3 0 1 1;
#X connect 5 0 3 0;
#X connect 6 0 5 0;
#X connect 6 0 9 0;
#X connect 7 0 2 2;
#X connect 8 0 2 1;
#X connect 9 0 8 0;
#X connect 10 0 16 0;
#X connect 10 0 23 0;
#X connect 11 0 15 0;
#X connect 12 0 14 0;
#X connect 13 0 1 0;
#X connect 14 0 13 0;
#X connect 15 0 13 0;
#X connect 16 0 25 0;
#X connect 17 0 16 2;
#X connect 18 0 13 0;
#X connect 19 0 17 0;
#X connect 20 0 19 0;
#X connect 20 0 21 0;
#X connect 20 0 26 0;
#X connect 21 0 22 0;
#X connect 22 0 23 2;
#X connect 23 0 24 0;
#X connect 24 0 13 0;
#X connect 25 0 13 0;
#X connect 26 0 7 0;
