#N canvas 0 22 463 333 12;
#X obj 37 37 inlet;
#X obj 144 280 outlet~;
#X msg 37 61 1 0 \, 0 150 0;
#X obj 37 85 vline~;
#X obj 135 219 *~;
#X obj 181 84 noise~;
#X obj 178 164 osc~;
#X obj 127 125 *~ 80;
#X connect 0 0 2 0;
#X connect 2 0 3 0;
#X connect 3 0 4 0;
#X connect 3 0 7 0;
#X connect 4 0 1 0;
#X connect 6 0 4 1;
#X connect 7 0 6 0;
