#N canvas 211 37 911 698 10;
#X obj 349 152 masterclock;
#X obj 288 93 tgl 15 0 empty empty empty 17 7 0 10 -262144 -1 -1 0
1;
#X obj 413 57 hsl 128 15 400 10 0 0 empty empty empty -2 -8 0 10 -262144
-1 -1 10300 1;
#X floatatom 414 94 5 0 0 0 - - -;
#X floatatom 449 188 5 0 0 0 - - -;
#X obj 321 187 bng 15 250 50 0 empty empty empty 17 7 0 10 -262144
-1 -1;
#X obj 406 657 dac~;
#X obj 386 567 *~ 0.2;
#X floatatom 380 184 5 0 0 0 - - -;
#X obj 380 217 mod 64;
#X obj 153 338 bng 15 250 50 0 empty empty empty 17 7 0 10 -262144
-1 -1;
#X obj 230 345 bng 15 250 50 0 empty empty empty 17 7 0 10 -262144
-1 -1;
#X obj 305 348 bng 15 250 50 0 empty empty empty 17 7 0 10 -262144
-1 -1;
#X obj 375 347 bng 15 250 50 0 empty empty empty 17 7 0 10 -262144
-1 -1;
#N canvas 730 130 508 449 bonk 1;
#X obj 59 11 inlet;
#X obj 120 347 outlet~;
#X obj 156 281 *~;
#X obj 222 100 vline~;
#X obj 58 217 osc~ 200;
#X obj 17 103 vline~;
#X msg 16 63 150 0 0 \, 100 200 0 \, 50 600 0;
#X msg 224 57 1 0 0 \, 0.75 200 0 \, 0 400 0;
#X connect 0 0 7 0;
#X connect 0 0 6 0;
#X connect 2 0 1 0;
#X connect 3 0 2 1;
#X connect 4 0 2 0;
#X connect 5 0 4 0;
#X connect 6 0 5 0;
#X connect 7 0 3 0;
#X restore 293 418 pd bonk;
#X obj 384 606 fdn~ 200 1024;
#N canvas 796 317 469 441 crack 1;
#X obj 69 21 inlet;
#X obj 130 357 outlet~;
#X obj 166 291 *~;
#X obj 232 110 vline~;
#X msg 234 67 1 0 0 \, 0.75 200 0 \, 0 400 0;
#X obj 94 216 noise~;
#X connect 0 0 4 0;
#X connect 2 0 1 0;
#X connect 3 0 2 1;
#X connect 4 0 3 0;
#X connect 5 0 2 0;
#X restore 588 519 pd crack;
#X obj 197 269 sel 0 16 32 48;
#X obj 506 271 sel 8 24 40 56;
#X connect 0 0 5 0;
#X connect 0 1 8 0;
#X connect 0 2 4 0;
#X connect 1 0 0 0;
#X connect 2 0 3 0;
#X connect 3 0 0 1;
#X connect 7 0 6 0;
#X connect 7 0 6 1;
#X connect 8 0 9 0;
#X connect 9 0 17 0;
#X connect 9 0 18 0;
#X connect 10 0 14 0;
#X connect 11 0 14 0;
#X connect 12 0 14 0;
#X connect 13 0 14 0;
#X connect 14 0 7 0;
#X connect 15 0 6 0;
#X connect 15 1 6 1;
#X connect 16 0 7 0;
#X connect 17 0 10 0;
#X connect 17 1 11 0;
#X connect 17 2 12 0;
#X connect 17 3 13 0;
#X connect 18 0 16 0;
#X connect 18 1 16 0;
#X connect 18 2 16 0;
#X connect 18 3 16 0;
