#N canvas 662 50 1126 366 10;
#X obj 106 63 adc~ 11 12 13 14 15 16;
#X obj 538 103 channelstrip;
#X obj 278 103 channelstrip;
#X obj 364 103 channelstrip;
#X obj 451 103 channelstrip;
#X obj 193 103 channelstrip;
#X obj 106 103 channelstrip;
#X obj 193 281 outlet~;
#X obj 278 283 outlet~;
#X obj 364 285 outlet~;
#X obj 451 286 outlet~;
#X obj 538 285 outlet~;
#X obj 106 280 outlet~;
#X connect 0 0 6 0;
#X connect 0 1 5 0;
#X connect 0 2 2 0;
#X connect 0 3 3 0;
#X connect 0 4 4 0;
#X connect 0 5 1 0;
#X connect 1 0 11 0;
#X connect 2 0 8 0;
#X connect 3 0 9 0;
#X connect 4 0 10 0;
#X connect 5 0 7 0;
#X connect 6 0 12 0;
#X coords 0 -1 1 1 525 160 2 100 100;
