#N canvas 373 863 450 391 10;
#X obj 103 117 knob 32 32 0 1 0 0 empty empty empty 0 -8 0 8 3.21219e+06
1 5.46208e+06 2200 1;
#X obj 39 198 *~;
#X obj 148 118 knob 32 32 0 1 0 0 empty empty empty 0 -8 0 8 3.21219e+06
1 5.46208e+06 0 1;
#X obj 43 8 inlet~;
#X obj 202 296 outlet~;
#X obj 39 284 outlet~;
#X obj 39 261 *~;
#X obj 202 271 *~;
#X obj 70 224 -;
#X obj 70 196 swap 1;
#X text 109 99 vol;
#X text 151 99 pan;
#X connect 0 0 1 1;
#X connect 1 0 6 0;
#X connect 1 0 7 0;
#X connect 2 0 7 1;
#X connect 2 0 9 0;
#X connect 3 0 1 0;
#X connect 6 0 5 0;
#X connect 7 0 4 0;
#X connect 8 0 6 1;
#X connect 9 0 8 0;
#X connect 9 1 8 1;
#X coords 0 -1 1 1 85 60 2 100 100;
