#N canvas 0 22 1156 511 10;
#X obj 538 103 channelstrip;
#X obj 278 103 channelstrip;
#X obj 364 103 channelstrip;
#X obj 451 103 channelstrip;
#X obj 193 103 channelstrip;
#X obj 106 103 channelstrip;
#X obj 193 281 outlet~;
#X obj 278 283 outlet~;
#X obj 364 285 outlet~;
#X obj 451 286 outlet~;
#X obj 538 285 outlet~;
#X obj 106 280 outlet~;
#X obj 390 28 adc~ 1 2 3 4 5 6 7 8;
#X obj 629 103 channelstrip;
#X obj 629 285 outlet~;
#X obj 718 104 channelstrip;
#X obj 718 286 outlet~;
#X text 116 88 Scarlett Analog Ins;
#X connect 0 0 10 0;
#X connect 1 0 7 0;
#X connect 2 0 8 0;
#X connect 3 0 9 0;
#X connect 4 0 6 0;
#X connect 5 0 11 0;
#X connect 12 0 5 0;
#X connect 12 1 4 0;
#X connect 12 2 1 0;
#X connect 12 3 2 0;
#X connect 12 4 3 0;
#X connect 12 5 0 0;
#X connect 12 6 13 0;
#X connect 12 7 15 0;
#X connect 13 0 14 0;
#X connect 15 0 16 0;
#X coords 0 -1 1 1 700 170 2 100 90;
