#N canvas 27 178 543 317 12;
#X obj 110 69 inlet~ left;
#X obj 248 70 inlet~ right;
#X obj 111 224 outlet~ left;
#X obj 257 223 outlet~ right;
#X obj 250 144 *~;
#X obj 113 150 *~;
#X obj 68 63 vsl 15 128 0 1 0 0 empty empty empty 0 -9 0 10 -262144
-1 -1 0 1;
#X connect 0 0 5 0;
#X connect 1 0 4 0;
#X connect 4 0 3 0;
#X connect 5 0 2 0;
#X connect 6 0 4 1;
#X connect 6 0 5 1;
#X coords 100 -1 1 1 50 150 1 50 50;
