#N canvas 612 108 1068 665 10;
#X obj 47 540 dac~ 11 12 13 14 15 16 17 18;
#X obj 718 34 adc~ 9 10 11 12 13 14 15 16;
#X obj 701 502 midiin;
#X obj 695 551 midiout;
#X text 64 568 ES-3 outputs;
#X text 719 8 ES-6 inputs;
#X obj 1063 562 midiout;
#X msg 1110 506 2;
#X msg 1041 365 248;
#X msg 995 442 250;
#X msg 993 501 252;
#X text 990 464 start;
#X text 991 525 stop;
#X obj 323 37 adc~ 1 2 3 4 5 6 7 8;
#X text 311 15 Scarlett Analog Inputs;
#X obj 1186 79 *~ 0.0625;
#X obj 1109 78 *~ 0.0625;
#X obj 1039 80 *~ 0.0625;
#X obj 971 81 *~ 0.0625;
#X obj 896 82 *~ 0.0625;
#X obj 814 79 *~ 0.0625;
#X obj 737 77 *~ 0.0625;
#X obj 666 74 *~ 0.0625;
#X obj 582 71 *~ 0.0625;
#X obj 512 72 *~ 0.0625;
#X obj 433 71 *~ 0.0625;
#X obj 362 68 *~ 0.0625;
#X obj 284 67 *~ 0.0625;
#X obj 206 70 *~ 0.0625;
#X obj 133 70 *~ 0.0625;
#X obj 65 68 *~ 0.0625;
#X obj 525 163 +~;
#X obj 884 172 +~;
#X obj 569 233 dac~ 1 2;
#X obj 138 377 writesf~ 2;
#X msg 108 299 start;
#X msg 129 330 stop;
#X msg 71 273 open /tmp/pd_soundfile.wav;
#X obj 31 310 bng 15 250 50 0 empty empty empty 17 7 0 10 -262144 -1
-1;
#X obj 31 332 savepanel;
#X obj 564 536 vu 15 120 empty empty -1 -8 0 10 -66577 -1 1 0;
#X obj 490 534 vu 15 120 empty empty -1 -8 0 10 -66577 -1 1 0;
#X obj 563 504 snapshot~;
#X obj 489 504 snapshot~;
#X obj 537 475 metro 100;
#X obj 535 437 tgl 15 0 empty empty empty 17 7 0 10 -262144 -1 -1 0
1;
#X msg 829 596 \; pd dsp 1;
#X msg 831 627 \; pd dsp 0;
#X connect 1 0 22 0;
#X connect 1 1 21 0;
#X connect 1 2 20 0;
#X connect 1 3 19 0;
#X connect 1 4 18 0;
#X connect 1 5 17 0;
#X connect 1 6 16 0;
#X connect 1 7 15 0;
#X connect 2 0 3 0;
#X connect 2 1 3 1;
#X connect 7 0 6 1;
#X connect 8 0 6 0;
#X connect 9 0 6 0;
#X connect 10 0 6 0;
#X connect 13 0 30 0;
#X connect 13 1 29 0;
#X connect 13 2 28 0;
#X connect 13 3 27 0;
#X connect 13 4 26 0;
#X connect 13 5 25 0;
#X connect 13 6 24 0;
#X connect 13 7 23 0;
#X connect 15 0 32 0;
#X connect 16 0 32 0;
#X connect 17 0 32 0;
#X connect 18 0 32 0;
#X connect 19 0 32 0;
#X connect 20 0 32 0;
#X connect 21 0 32 0;
#X connect 22 0 32 0;
#X connect 23 0 31 0;
#X connect 24 0 31 0;
#X connect 25 0 31 0;
#X connect 26 0 31 0;
#X connect 27 0 31 0;
#X connect 28 0 31 0;
#X connect 29 0 31 0;
#X connect 30 0 31 0;
#X connect 31 0 33 0;
#X connect 31 0 34 0;
#X connect 31 0 43 0;
#X connect 32 0 33 1;
#X connect 32 0 34 1;
#X connect 32 0 42 0;
#X connect 35 0 34 0;
#X connect 36 0 34 0;
#X connect 37 0 34 0;
#X connect 38 0 39 0;
#X connect 39 0 34 0;
#X connect 42 0 40 0;
#X connect 43 0 41 0;
#X connect 44 0 42 0;
#X connect 44 0 43 0;
#X connect 45 0 44 0;
