#N canvas 0 22 570 630 12;
#X obj 224 503 outlet pitch;
#X obj 108 151 knob 32 32 0 127 0 0 empty empty empty 0 -8 0 8 5.43096e+06
1 5.43091e+06 1200 1;
#X obj 148 153 knob 32 32 0 127 0 0 empty empty empty 0 -8 0 8 5.43096e+06
1 5.43091e+06 2200 1;
#X obj 223 302 f;
#X obj 29 36 inlet;
#X obj 55 503 outlet gate;
#X obj 107 111 tgl 15 0 empty empty empty 17 7 0 10 -262144 -1 -1 1
1;
#X obj 68 176 f;
#X obj 29 212 spigot;
#X msg 31 388 1;
#X obj 85 387 delay;
#X msg 85 411 0;
#X obj 29 236 t b;
#X obj 29 70 t b;
#X connect 1 0 10 1;
#X connect 2 0 3 1;
#X connect 3 0 0 0;
#X connect 4 0 13 0;
#X connect 6 0 7 0;
#X connect 7 0 8 1;
#X connect 8 0 12 0;
#X connect 9 0 5 0;
#X connect 10 0 11 0;
#X connect 11 0 5 0;
#X connect 12 0 10 0;
#X connect 12 0 9 0;
#X connect 12 0 3 0;
#X connect 13 0 8 0;
#X coords 0 -1 1 1 85 90 2 100 100;
